<svg width="35" height="27" fill="none" xmlns="http://www.w3.org/2000/svg"><path d="M6 23h3v3H6v-3ZM6 2h27v14H6V2Z" fill="#fff"/><path d="M32.069 15.666v-13c0-.265-.235-.5-.5-.5h-25c-.266 0-.5.235-.5.5v13c0 .266.234.5.5.5h25c.265 0 .5-.234.5-.5Zm2-13v17c0 1.375-1.125 2.5-2.5 2.5h-8.5c0 1.328 1 2.453 1 3 0 .547-.453 1-1 1h-8c-.547 0-1-.453-1-1 0-.578 1-1.64 1-3h-8.5a2.507 2.507 0 0 1-2.5-2.5v-17c0-1.375 1.125-2.5 2.5-2.5h25c1.375 0 2.5 1.125 2.5 2.5Z" fill="#23282D"/><path d="M2 10h12v13H2V10Z" fill="#fff"/><path d="M8.355 24.595a.791.791 0 0 0-.785-.786.791.791 0 0 0-.786.786c0 .43.356.785.786.785.43 0 .785-.356.785-.785Zm4.715-1.965V10.845a.404.404 0 0 0-.393-.393H2.463a.404.404 0 0 0-.393.393V22.63c0 .21.184.393.393.393h10.214a.404.404 0 0 0 .393-.393Zm1.571-11.785v13.357a1.97 1.97 0 0 1-1.964 1.964H2.463a1.97 1.97 0 0 1-1.965-1.964V10.845A1.97 1.97 0 0 1 2.463 8.88h10.214a1.97 1.97 0 0 1 1.964 1.965Z" fill="#23282D"/></svg>