<?xml version="1.0" encoding="utf-8"?>
<!-- Generator: Adobe Illustrator 25.2.0, SVG Export Plug-In . SVG Version: 6.00 Build 0)  -->
<svg version="1.1" id="Layer_1" xmlns="http://www.w3.org/2000/svg" xmlns:xlink="http://www.w3.org/1999/xlink" x="0px" y="0px"
	 width="360.3px" height="96.5px" viewBox="0 0 360.3 96.5" style="enable-background:new 0 0 360.3 96.5;" xml:space="preserve">
<style type="text/css">
	.st0{fill:url(#SVGID_1_);}
	.st1{fill:#8F9194;}
	.st2{fill:url(#SVGID_2_);}
	.st3{fill:url(#SVGID_3_);}
	.st4{fill:#565759;}
	.st5{fill:none;stroke:#C9CACC;stroke-width:0.3044;stroke-miterlimit:3.864;}
	.st6{fill:url(#SVGID_4_);}
	.st7{fill:#FFD400;}
	.st8{fill:none;stroke:#FFD400;stroke-width:9.185000e-03;stroke-miterlimit:3.864;}
	.st9{fill-rule:evenodd;clip-rule:evenodd;fill:#FFD400;}
	.st10{fill:none;stroke:#FFD400;stroke-width:5.511000e-03;stroke-miterlimit:3.864;}
	.st11{fill:none;stroke:#FFD400;stroke-width:5.082700e-02;stroke-miterlimit:3.864;}
	.st12{fill:none;stroke:#FFD400;stroke-width:3.000600e-02;stroke-miterlimit:3.864;}
	.st13{fill:none;stroke:#FFD400;stroke-width:0.9969;stroke-miterlimit:3.864;}
	.st14{fill:none;stroke:#FFD400;stroke-width:0.8898;stroke-miterlimit:3.864;}
	.st15{fill:none;stroke:#FFD400;stroke-width:1.5505;stroke-miterlimit:3.864;}
	.st16{fill:#0A4E82;}
	.st17{fill-rule:evenodd;clip-rule:evenodd;fill:#0A4E82;}
	.st18{fill:none;stroke:#0A4E82;stroke-width:0.3451;stroke-miterlimit:3.864;}
</style>
<g>
	<g id="Layer_1_1_">
		
			<radialGradient id="SVGID_1_" cx="32.65" cy="-12.12" r="105.95" gradientTransform="matrix(1 0 0 -1 -16.64 79.28)" gradientUnits="userSpaceOnUse">
			<stop  offset="0" style="stop-color:#7B7C7F"/>
			<stop  offset="0.47" style="stop-color:#A7A8AA"/>
			<stop  offset="1" style="stop-color:#DCDDDE"/>
		</radialGradient>
		<path class="st0" d="M1.1,0c-5.7,64.7,12.2,81.6,40.2,96.5l0,0C69.6,81.6,87.4,65.3,81.6,0.1l0,0L1.1,0z"/>
		<path class="st1" d="M5.1,3.7h72.5c5.2,59.1-10.8,74.5-36.3,88.1C16.1,78.3-0.1,62.4,5.1,3.7"/>
		
			<radialGradient id="SVGID_2_" cx="80.21" cy="76.16" r="76.81" gradientTransform="matrix(1 0 0 -1 -16.64 79.28)" gradientUnits="userSpaceOnUse">
			<stop  offset="0" style="stop-color:#777B7F"/>
			<stop  offset="0.45" style="stop-color:#A3A5A8"/>
			<stop  offset="1" style="stop-color:#DCDDDE"/>
		</radialGradient>
		<path class="st2" d="M41.3,91.8c25.5-13.5,41.5-29,36.3-88.1l0,0H41.2L41.3,91.8z"/>
		
			<radialGradient id="SVGID_3_" cx="57.948" cy="31.47" r="39.4314" gradientTransform="matrix(1 0 0 -1 -16.64 79.28)" gradientUnits="userSpaceOnUse">
			<stop  offset="0" style="stop-color:#00C0F3"/>
			<stop  offset="0.6" style="stop-color:#0778AE"/>
			<stop  offset="1" style="stop-color:#0B4C84"/>
		</radialGradient>
		<path class="st3" d="M6.5,5C1.5,62,17,77.5,41.2,90.6C65.7,77.5,81.2,62.4,76.2,5L6.5,5"/>
		<polyline class="st4" points="5.2,3.8 6.4,5.1 76.2,5 77.5,3.7 		"/>
		<path class="st5" d="M5.1,3.7h72.5c5.2,59.1-10.8,74.5-36.3,88.1C16.1,78.3-0.1,62.4,5.1,3.7"/>
		
			<radialGradient id="SVGID_4_" cx="53.46" cy="45.19" r="38.89" gradientTransform="matrix(1 0 0 -1 -16.64 79.28)" gradientUnits="userSpaceOnUse">
			<stop  offset="0" style="stop-color:#003359"/>
			<stop  offset="0.34" style="stop-color:#053F6E"/>
			<stop  offset="0.71" style="stop-color:#0A497E"/>
			<stop  offset="1" style="stop-color:#0B4C84"/>
		</radialGradient>
		<path class="st6" d="M56.4,27.2c-6.7,0.4-13.2,2.2-19.2,5.2l0,0c-2.3,1.2-4.5,2.6-6.7,4.1l0,0c-2.1,1.4-4,3-5.9,4.6l0,0
			c-1.4,1.2-2.7,2.5-4,3.9l0,0c-0.8,0.8-1.5,1.6-2.1,2.5l0,0c-1.3,1.6-2.5,3.4-3.5,5.2l0,0c-2.8,5-3.4,9.1-2.5,11l0,0
			c0.9,2,2,3.8,3.2,5.7l0,0c2.2,3.3,4.8,6.4,7.7,9.1l0,0c1.4,1.3,2.9,2.5,4.4,3.7l0,0c1.5,1.1,3,2.2,4.6,3.2l0,0
			c2.8,1.8,5.7,3.5,8.7,5.2l0,0c1.5-0.8,3.1-1.7,4.5-2.5l0,0c4.3-2.4,8.4-5.3,12.2-8.5l0,0c1.3-1.1,2.5-2.3,3.6-3.5l0,0
			C64.5,73,67,69.5,69,65.8l0,0c3.5-6.8,5.8-14.1,6.8-21.7l0,0c0.3-2.2,0.6-4.5,0.8-6.9l0,0c0.1-1.1,0.2-2.2,0.2-3.3l0,0
			c0-0.7,0.1-1.4,0.1-2.2l0,0c0-0.5-0.6-1.1-1.6-1.7l0,0c-1-0.5-2.1-1-3.2-1.3l0,0c-4-1.2-8.1-1.7-12.3-1.7l0,0
			C58.7,27,57.6,27,56.4,27.2"/>
		<path class="st7" d="M40.2,71.8c0-0.4,0.6-0.8,1.3-0.8s1.3,0.3,1.3,0.8s-0.6,0.8-1.3,0.8S40.2,72.3,40.2,71.8"/>
		<path class="st8" d="M40.2,71.8c0-0.4,0.6-0.8,1.3-0.8s1.3,0.3,1.3,0.8s-0.6,0.8-1.3,0.8S40.2,72.3,40.2,71.8z"/>
		<path class="st9" d="M36.5,18.5c0.7,0,1.5,0.2,2,0.7c-0.3-0.5-0.4-1.2-0.2-1.8L36.5,18.5z"/>
		<path class="st10" d="M36.5,18.5c0.7,0,1.5,0.2,2,0.7c-0.3-0.5-0.4-1.2-0.2-1.8L36.5,18.5z"/>
		<path class="st9" d="M47,18.4c-0.7,0-1.5,0.2-2,0.7c0.3-0.6,0.4-1.2,0.2-1.8L47,18.4z"/>
		<path class="st10" d="M47,18.4c-0.7,0-1.5,0.2-2,0.7c0.3-0.6,0.4-1.2,0.2-1.8L47,18.4z"/>
		<path class="st9" d="M18.8,29.1c0.1-0.7,0.4-1.4,1-1.9c-0.6,0.3-1.3,0.2-1.8-0.1L18.8,29.1z"/>
		<path class="st10" d="M18.8,29.1c0.1-0.7,0.4-1.4,1-1.9c-0.6,0.3-1.3,0.2-1.8-0.1L18.8,29.1z"/>
		<path class="st9" d="M20,18.7c-0.1,0.7,0.1,1.4,0.5,2c-0.5-0.4-1.2-0.5-1.8-0.3L20,18.7z"/>
		<path class="st10" d="M20,18.7c-0.1,0.7,0.1,1.4,0.5,2c-0.5-0.4-1.2-0.5-1.8-0.3L20,18.7z"/>
		<path class="st9" d="M64.6,29.2c-0.1-0.7-0.4-1.4-1-1.9c0.6,0.3,1.3,0.3,1.9-0.1L64.6,29.2z"/>
		<path class="st10" d="M64.6,29.2c-0.1-0.7-0.4-1.4-1-1.9c0.6,0.3,1.3,0.3,1.9-0.1L64.6,29.2z"/>
		<path class="st9" d="M63.4,18.8c0.1,0.7-0.1,1.4-0.5,2c0.5-0.4,1.2-0.5,1.8-0.3L63.4,18.8z"/>
		<path class="st10" d="M63.4,18.8c0.1,0.7-0.1,1.4-0.5,2c0.5-0.4,1.2-0.5,1.8-0.3L63.4,18.8z"/>
		<rect x="40.9" y="56" class="st7" width="1.3" height="16.5"/>
		<rect x="40.9" y="56" class="st11" width="1.3" height="16.5"/>
		<path class="st7" d="M51.6,25.6c-1,0-0.7,1.3-0.7,1.3s-2.8,4.7-3.2,3.4c-0.4-1-1.1-1.9-2.1-2.6c-1.5-1,1.7,2.7,1.8,4
			c-0.1,1.1-0.2,2.2-0.5,3.2h0.6c0.2-1.4,0.6-2.8,1.3-4c1.3-2.1,2.5-3.6,2.5-3.6c0.2-0.3,1.1,0,1.2-0.4c0-0.2-0.5-0.6-0.6-0.7
			C51.8,25.9,51.7,25.6,51.6,25.6"/>
		<path class="st8" d="M51.6,25.6c-1,0-0.7,1.3-0.7,1.3s-2.8,4.7-3.2,3.4c-0.4-1-1.1-1.9-2.1-2.6c-1.5-1,1.7,2.7,1.8,4
			c-0.1,1.1-0.2,2.2-0.5,3.2h0.6c0.2-1.4,0.6-2.8,1.3-4c1.3-2.1,2.5-3.6,2.5-3.6c0.2-0.3,1.1,0,1.2-0.4c0-0.2-0.5-0.6-0.6-0.7
			C51.9,25.9,51.8,25.6,51.6,25.6z"/>
		<path class="st7" d="M31.8,25.5c1,0,0.7,1.3,0.7,1.3s2.8,4.7,3.2,3.4c0.4-1,1.2-1.9,2.1-2.6c1.5-1-1.7,2.7-1.8,4
			c0.1,1.1,0.2,2.2,0.5,3.2h-0.6c-0.2-1.4-0.6-2.8-1.3-4c-1.3-2.1-2.5-3.7-2.5-3.7c-0.2-0.3-1.1,0-1.2-0.4c0-0.2,0.5-0.6,0.5-0.7
			C31.5,25.8,31.6,25.5,31.8,25.5"/>
		<path class="st8" d="M31.8,25.5c1,0,0.7,1.3,0.7,1.3s2.8,4.7,3.2,3.4c0.4-1,1.2-1.9,2.1-2.6c1.5-1-1.7,2.7-1.8,4
			c0.1,1.1,0.2,2.2,0.5,3.2h-0.6c-0.2-1.4-0.6-2.8-1.3-4c-1.3-2.1-2.5-3.7-2.5-3.7c-0.2-0.3-1.1,0-1.2-0.4c0-0.2,0.5-0.6,0.5-0.7
			C31.5,25.8,31.6,25.5,31.8,25.5z"/>
		<path class="st9" d="M41.5,31.2l-0.6,0.7v1h-1.3l-0.3,0.4l0.2,0.6h1.7c0.2,1.2-0.6,2.2-1.8,2.4c0,0,0,0,0,0
			c-2.5,0.3-5,0.3-7.5,0.1l-0.5-1.3l1-1.1l-1.2,0.3c-0.1,0-0.9-1.2-0.9-1.2c-0.1,1,1.4,4,1.4,4s8.9,0,10-0.8c3.2,0.7,6.5,1,9.7,0.8
			c0,0,1.5-2.9,1.6-4c-0.2,0-0.9,1.2-0.9,1.2L50.9,34l0.7,1.1l-0.3,1.2c-2.5,0.2-5,0.2-7.5,0c-1.1-0.2-1.8-1.2-1.8-2.3h1.7l0.3-0.6
			l-0.2-0.4h-1.5v-1L41.5,31.2z M41.5,30.6l-0.9,0.8v1.1h-1.3l-0.4,0.8l0.3,1h1.4v0.6c-1.4,0.5-2.8,0.8-4.3,0.9h-4.2l-0.4-0.6
			l1.1-0.8v-0.7h-1.7c0,0-0.2-0.9-0.3-0.9c-0.1,0-1.1-0.5-1.2-0.4c-0.1,1.1,1.5,5.3,1.5,5.3s8.9,0.9,10.2,0c0.1-0.1,0.5,0.2,0.5,0.2
			s3.7,0.4,9.8-0.2c0.7-1.7,1.2-3.4,1.6-5.2c-0.4,0.1-0.8,0.2-1.2,0.4l-0.3,0.9h-1.7v0.7l1.2,0.8L51,35.7h-4.6
			c-1.3-0.2-2.6-0.5-3.9-0.9v-0.6h1.3l0.3-1l-0.4-0.8h-1.3v-1.1L41.5,30.6z"/>
		<path class="st9" d="M55.2,25.3c0,0,1.5-1.1,3.1-2.2c3.9-2.7,0.2-3,0.3-3.1c0.3-0.7,0.8-0.6,1.4-0.5c3.5,0.4-1,4.8-0.9,4.7
			s3-1.5,3.9-1.5c1,0.1,1.9,0.6,2.4,1.5c0,0-0.2,1.2-2,2c-0.7,0.3-4.1-0.5-4.1-0.5s5.7,3.5,1.7,4.5c-0.9,0.2-1.2-0.3-1.2-0.3
			s3.4-1-1-3C57.5,26.2,56.4,25.7,55.2,25.3 M52.6,25.8c0-0.5,2.5-1.5,4.6-3.3s1.6-2.5,0.3-2c-0.4,0.1-1.7,1.3-1.7,1.2
			c0.2-1.1,2-4.5,3.4-4.4c5.4,0.2,1.9,5.3,2.2,5.2c0.8-0.5,1.7-0.7,2.7-0.7c1.4,0.1,2.7,0.9,3.5,2.1c0,0-0.2,1.7-2.8,2.8
			c-0.9,0.2-1.8,0.2-2.7,0c0,0,4.3,4.4-0.8,5.6c-1.3,0.3-3.7-1.2-4.3-3.5c0.6,0.3,1.3,0.6,1.9,0.7c1.3,0.3,1.4-0.9-0.8-1.9
			C55,26.3,52.9,26.3,52.6,25.8"/>
		<path class="st9" d="M41.5,30.8c0.6-2,1.5-4,2.6-5.8c1.4-2.1,2.3-1.8,1.9-0.5c-0.1,0.4-1.1,1.9-1,1.8c1-0.3,4.2-2.5,4-3.9
			c-0.9-5.3-5.5-1.3-5.4-1.5c1.1-2.1,0.2-4.8-2-5.8c-0.1,0-0.1-0.1-0.2-0.1c0,0-1.7,0.4-2.5,3.1c-0.1,0.9,0,1.9,0.4,2.7
			c0,0-4.9-3.7-5.4,1.6c-0.1,1.4,1.7,3.5,4,3.9c-0.4-0.6-0.7-1.2-1-1.8c-0.5-1.3,0.7-1.5,2,0.5C40.1,26.7,40.9,28.7,41.5,30.8
			 M41.5,27.4c0.8-1.5,0.8-1.4,1.8-3.4c2.2-4.2,3-0.6,3.1-0.7c0.7-0.4,0.5-0.9,0.4-1.5c-0.8-3.4-4.6,1.6-4.5,1.5s1.2-3.1,1-4
			c-0.2-1-0.9-1.8-1.7-2.2c0,0-1.2,0.3-1.7,2.2c-0.2,0.7,1,4,1,4s-4.2-5.2-4.6-1.1c-0.1,1,0.4,1.2,0.4,1.2s0.6-3.5,3.1,0.7
			C40.5,25,41.1,26.1,41.5,27.4"/>
		<path class="st9" d="M28.2,25.2c0,0-1.5-1.1-3.1-2.2c-4-2.7-0.2-3-0.3-3.1c-0.3-0.7-0.8-0.6-1.5-0.5c-3.5,0.4,1,4.8,0.9,4.7
			s-3-1.5-3.9-1.5c-1,0.1-1.9,0.6-2.4,1.5c0,0,0.2,1.2,2,2c0.7,0.3,4.1-0.5,4.1-0.5s-5.7,3.5-1.7,4.5c0.9,0.2,1.2-0.3,1.2-0.3
			s-3.4-1,1-3C25.8,26.1,27,25.6,28.2,25.2 M30.8,25.8c0-0.5-2.5-1.5-4.6-3.3s-1.5-2.5-0.3-2c0.4,0.2,1.7,1.3,1.7,1.2
			c-0.2-1.1-2-4.5-3.4-4.4c-5.4,0.2-2,5.3-2.2,5.2c-0.8-0.5-1.7-0.8-2.6-0.8c-1.4,0.1-2.7,0.9-3.5,2.1c0,0,0.2,1.7,2.8,2.8
			c0.9,0.2,1.8,0.2,2.7,0c0,0-4.2,4.4,0.8,5.5c1.3,0.3,3.7-1.2,4.4-3.4c-0.6,0.3-1.3,0.6-2,0.8c-1.3,0.3-1.4-0.9,0.8-1.9
			C28.3,26.2,30.5,26.2,30.8,25.8"/>
		<path class="st9" d="M41.1,70.6c0,0-1.8-4.9-3.8-7.3c-6-7.2-11.3-1.3-11.3-1.3s1.2-2.4,3-3.5c2.8-1.7,8.3-1.1,10.8,3.1
			c1.5,2.6,1.7,7.4,1.7,7.4s0.6-5.6,1.7-7.4c1.4-2.2,8.8-8.1,13.8,0.5c0.2,0.4-4.9-6-11.3,1.3c-1.9,2.3-3.8,7.3-3.8,7.3L41.1,70.6
			 M42.2,68.5c0,0-0.3-1,2.5-5.5c1.5-2.6,4.4-4.1,7.4-3.9c0,0.1-4-1.8-7.7,2.2C42.3,63.7,42.2,68.5,42.2,68.5 M40.9,68.5
			c0,0,0.3-1-2.5-5.5c-1.5-2.6-4.4-4.1-7.4-3.9c0,0.1,4-1.8,7.7,2.2C40.8,63.7,40.9,68.5,40.9,68.5"/>
		<path class="st9" d="M48.1,71.5c0.4-1.6,0.1-1.5,0-1.5c-1.5,3.6-5.7,5.3-9.3,3.8c-1.7-0.7-3.1-2.1-3.8-3.8c0.1,0-0.3-0.6,0,1.2
			c0.1,0.7,2.8,4.6,6.6,4.7S48,72.3,48.1,71.5 M33.4,68.4c0-2.1,2-5.6,2-5.6s-2.9,10.2,5.9,10.2c9.1,0,6.4-10.2,6.3-10.2
			s1.9,3.5,1.9,5.6c0.2,4.5-3.3,8.2-7.8,8.3s-8.2-3.3-8.3-7.8C33.4,68.8,33.4,68.6,33.4,68.4"/>
		<path class="st9" d="M40.1,55.9v1.6c0,0-3.1-3.2-14.6-1.2l2.2-2.2C36.2,52.7,39.6,55.2,40.1,55.9 M25.1,41l1.5-1.5v14.3l-1.5,1.5
			V41z M40.9,41.7v13.6c0,0-1.9-4.4-13.2-2.2V39.2C41.5,38.7,40.9,41.7,40.9,41.7 M41.4,39.5v21c0,0-3-6.6-17.5-2.4V40.9l2.8-2.9
			C37.6,37,41.4,39.5,41.4,39.5 M42.6,55.9v1.6c0,0,3.1-3.2,14.6-1.2l-2.2-2.2C46.4,52.7,43.1,55.2,42.6,55.9 M57.6,41l-1.5-1.5
			v14.4l1.5,1.5L57.6,41z M41.8,41.7v13.6c0,0,1.9-4.4,13.2-2.2l0.1-13.8C41.2,38.7,41.8,41.7,41.8,41.7 M41.4,39.5v21
			c0,0,2.9-6.6,17.5-2.4V40.9L56,38C45.1,37,41.4,39.5,41.4,39.5"/>
		<rect x="30.6" y="49.1" class="st7" width="0.4" height="2.5"/>
		<polygon class="st7" points="32.5,49.5 33.1,49.5 33.1,49.1 31.5,49.1 31.5,49.5 32.1,49.5 32.1,51.6 32.5,51.6 		"/>
		<path class="st9" d="M33.8,51.1h0.7l0.1,0.5h0.5l-0.7-2.5H34l-0.7,2.5h0.4L33.8,51.1z M34.2,49.7L34.2,49.7l0.2,1h-0.5L34.2,49.7z
			"/>
		<polygon class="st7" points="37.1,49.1 35.7,49.1 35.7,51.6 37.2,51.6 37.2,51.1 36.1,51.1 36.1,50.5 37,50.5 37,50.1 36.1,50.1 
			36.1,49.5 37.1,49.5 		"/>
		<path class="st7" d="M30.3,47c0,0.4,0.3,0.8,0.7,0.8c0.1,0,0.1,0,0.2,0c0.4,0,0.8-0.3,0.8-0.7c0,0,0-0.1,0-0.1
			c0-0.3-0.2-0.6-0.5-0.7l-0.5-0.1c-0.1,0-0.2-0.1-0.2-0.3c0-0.2,0.1-0.3,0.3-0.3c0,0,0,0,0,0c0.2,0,0.4,0.1,0.4,0.3c0,0,0,0,0,0
			h0.4c0-0.4-0.3-0.8-0.7-0.8c0,0,0,0-0.1,0c-0.4,0-0.7,0.3-0.8,0.7c0,0,0,0.1,0,0.1c0,0.6,0.3,0.6,0.6,0.7l0.2,0.1
			c0.2,0.1,0.4,0.1,0.4,0.3s-0.2,0.3-0.4,0.3c-0.2,0-0.4-0.1-0.4-0.3c0,0,0,0,0-0.1L30.3,47z"/>
		<polygon class="st7" points="34,45.3 32.5,45.3 32.5,47.8 34,47.8 34,47.3 32.9,47.3 32.9,46.7 33.9,46.7 33.9,46.3 32.9,46.3 
			32.9,45.7 34,45.7 		"/>
		<polygon class="st7" points="36.5,45.3 35.9,45.3 35.6,47.3 35.6,47.3 35.2,45.3 34.6,45.3 34.6,47.8 35,47.8 35,45.7 35,45.7 
			35.3,47.8 35.8,47.8 36.1,45.7 36.1,45.7 36.1,47.8 36.5,47.8 		"/>
		<rect x="37" y="46.6" class="st7" width="0.8" height="0.5"/>
		<path class="st9" d="M28.4,42.8c0,1.2,0.7,1.3,1,1.3s1-0.1,1-1.3c0-1.2-0.7-1.3-1-1.3S28.4,41.6,28.4,42.8 M28.8,42.8
			c0-0.7,0.3-0.9,0.5-0.9s0.5,0.2,0.5,0.9c0,0.7-0.3,0.9-0.5,0.9S28.8,43.5,28.8,42.8"/>
		<polygon class="st7" points="32.8,41.5 32.2,41.5 31.9,43.5 31.9,43.5 31.5,41.5 30.9,41.5 30.9,44 31.3,44 31.3,41.9 31.3,41.9 
			31.6,44 32,44 32.4,41.9 32.4,41.9 32.4,44 32.8,44 		"/>
		<polygon class="st7" points="34.7,43.2 34.7,43.2 33.9,41.5 33.5,41.5 33.5,44 33.8,44 33.8,42.2 33.8,42.2 34.7,44 35.1,44 
			35.1,41.5 34.7,41.5 		"/>
		<polygon class="st7" points="37.2,41.5 35.7,41.5 35.7,44 37.2,44 37.2,43.5 36.2,43.5 36.2,42.9 37.1,42.9 37.1,42.5 36.2,42.5 
			36.2,42 37.2,42 		"/>
		<path class="st7" d="M37.8,43.3c0,0.4,0.3,0.8,0.7,0.8c0,0,0.1,0,0.1,0c0.4,0,0.8-0.3,0.8-0.7c0,0,0-0.1,0-0.1
			c0-0.3-0.2-0.6-0.5-0.7l-0.5-0.2c-0.1,0-0.2-0.1-0.2-0.3c0-0.2,0.1-0.3,0.3-0.3c0,0,0,0,0,0c0.2,0,0.4,0.1,0.4,0.3c0,0,0,0,0,0.1
			h0.5c0-0.4-0.3-0.8-0.7-0.8c0,0,0,0-0.1,0c-0.4,0-0.7,0.2-0.8,0.6c0,0,0,0.1,0,0.1c0,0.6,0.3,0.6,0.6,0.7l0.2,0.1
			c0.2,0.1,0.4,0.1,0.4,0.3s-0.2,0.3-0.4,0.3c-0.2,0-0.4-0.1-0.4-0.3c0,0,0,0,0-0.1L37.8,43.3z"/>
		<polygon class="st7" points="44.4,50.6 45.3,50.6 45.3,50.2 44.4,50.2 44.4,49.6 45.4,49.6 45.4,49.2 44,49.2 44,51.7 44.4,51.7 
					"/>
		<rect x="45.9" y="49.2" class="st7" width="0.4" height="2.5"/>
		<path class="st7" d="M48.7,50c0-0.5-0.4-0.9-0.9-0.9c-0.5,0-0.9,0.4-0.9,1.3s0.4,1.3,0.9,1.3s0.8-0.4,0.9-0.9h-0.4
			c-0.1,0.3-0.2,0.5-0.4,0.5s-0.5-0.4-0.5-0.8c0-0.7,0.3-0.9,0.5-0.9s0.4,0.3,0.4,0.4L48.7,50z"/>
		<path class="st9" d="M49.7,51.2h0.7l0.1,0.5H51l-0.7-2.5h-0.5l-0.7,2.5h0.4L49.7,51.2z M50,49.7L50,49.7l0.2,1h-0.5L50,49.7z"/>
		<polygon class="st7" points="53,49.2 51.5,49.2 51.5,51.7 53,51.7 53,51.2 51.9,51.2 51.9,50.6 52.9,50.6 52.9,50.2 51.9,50.2 
			51.9,49.6 53,49.6 		"/>
		<polygon class="st7" points="46.2,41.5 44.7,41.5 44.7,44 46.2,44 46.2,43.6 45.1,43.6 45.1,43 46.1,43 46.1,42.5 45.1,42.5 
			45.1,42 46.2,42 		"/>
		<path class="st7" d="M49.6,41.6h-0.4v1.6c0,0.3-0.1,0.5-0.4,0.5s-0.3-0.2-0.3-0.5v-1.6H48v1.7c0,0.2,0,0.4,0.2,0.6
			c0.2,0.2,0.4,0.3,0.6,0.3c0.5,0,0.8-0.3,0.8-0.9V41.6z"/>
		<path class="st7" d="M50,43.3c0,0.4,0.3,0.8,0.7,0.8c0,0,0.1,0,0.1,0c0.4,0,0.8-0.3,0.8-0.7c0,0,0-0.1,0-0.1
			c0-0.3-0.2-0.6-0.5-0.7l-0.5-0.2c-0.1,0-0.2-0.1-0.2-0.3c0-0.2,0.1-0.3,0.3-0.3c0,0,0,0,0,0c0.2,0,0.4,0.1,0.4,0.3c0,0,0,0,0,0.1
			h0.4c0-0.4-0.3-0.8-0.7-0.8c0,0,0,0-0.1,0c-0.4,0-0.7,0.2-0.8,0.6c0,0,0,0.1,0,0.1c0,0.6,0.3,0.6,0.6,0.7l0.2,0.1
			c0.2,0.1,0.4,0.1,0.4,0.3c0,0.2-0.2,0.3-0.4,0.3c-0.2,0-0.4-0.1-0.4-0.3c0,0,0,0,0-0.1L50,43.3z"/>
		<rect x="46.9" y="41.5" class="st7" width="0.4" height="2.5"/>
		<path class="st9" d="M45.2,46.9h0.5c0.5,0,0.6-0.6,0.6-0.8c0-0.5-0.2-0.8-0.6-0.8h-0.9v2.5h0.4V46.9z M45.2,46.5v-0.7h0.3
			c0.3,0,0.4,0.1,0.4,0.3s0,0.4-0.3,0.4L45.2,46.5z"/>
		<path class="st9" d="M47,47.3h0.7l0.1,0.5h0.5l-0.7-2.5h-0.5l-0.7,2.5h0.4L47,47.3z M47.4,45.9L47.4,45.9l0.2,1h-0.5L47.4,45.9z"
			/>
		<path class="st7" d="M50.5,46.2c0-0.5-0.4-0.9-0.9-0.9c-0.5,0-0.9,0.4-0.9,1.3s0.4,1.3,0.9,1.3s0.8-0.4,0.9-0.9H50
			c-0.1,0.3-0.2,0.5-0.4,0.5s-0.5-0.4-0.5-0.8c0-0.7,0.3-0.9,0.5-0.9S50,46,50,46.2H50.5z"/>
		<rect x="51" y="45.3" class="st7" width="0.4" height="2.5"/>
		<rect x="51.9" y="46.6" class="st7" width="0.8" height="0.5"/>
		<polygon class="st7" points="40.8,33.3 41.5,32.7 42.1,33.3 41.5,33.9 		"/>
		<path class="st8" d="M40.8,41.7v13.6c0,0-1.9-4.4-13.2-2.2V39.2C41.4,38.7,40.8,41.7,40.8,41.7z"/>
		<path class="st8" d="M41.4,39.5v21c0,0-3-6.6-17.5-2.4V40.9l2.8-2.9C37.6,37,41.4,39.5,41.4,39.5z"/>
		<path class="st8" d="M41.9,41.7v13.6c0,0,1.9-4.4,13.2-2.2l0-13.8C41.2,38.7,41.9,41.7,41.9,41.7z"/>
		<path class="st12" d="M52.6,25.8c0-0.5,2.5-1.5,4.6-3.3s1.6-2.5,0.3-2c-0.4,0.1-1.7,1.3-1.7,1.2c0.2-1.1,2-4.5,3.4-4.4
			c5.4,0.2,1.9,5.3,2.2,5.2c0.8-0.5,1.7-0.7,2.7-0.7c1.4,0.1,2.7,0.9,3.5,2.1c0,0-0.2,1.7-2.8,2.8c-0.9,0.2-1.8,0.2-2.7,0
			c0,0,4.3,4.4-0.8,5.6c-1.3,0.3-3.7-1.2-4.3-3.5c0.6,0.3,1.3,0.6,1.9,0.7c1.3,0.3,1.4-0.9-0.8-1.9C55,26.3,52.9,26.3,52.6,25.8z"/>
		<path class="st12" d="M41.5,30.8c0.6-2,1.5-4,2.6-5.8c1.4-2.1,2.3-1.8,1.9-0.5c-0.1,0.4-1.1,1.9-1,1.8c1-0.3,4.2-2.5,4-3.9
			c-0.9-5.3-5.5-1.3-5.4-1.5c1.1-2.1,0.2-4.8-2-5.8c-0.1,0-0.1-0.1-0.2-0.1c0,0-1.7,0.4-2.5,3.1c-0.1,0.9,0,1.9,0.4,2.7
			c0,0-4.9-3.7-5.4,1.6c-0.1,1.4,1.7,3.5,4,3.9c-0.4-0.6-0.7-1.2-1-1.8c-0.5-1.3,0.7-1.5,2,0.5C40.1,26.7,40.9,28.7,41.5,30.8z"/>
		<path class="st12" d="M30.8,25.7c0-0.5-2.5-1.5-4.6-3.3s-1.5-2.5-0.3-2c0.4,0.2,1.7,1.3,1.7,1.2c-0.2-1.1-2-4.5-3.4-4.4
			c-5.4,0.2-2,5.3-2.2,5.2c-0.8-0.5-1.7-0.7-2.6-0.7c-1.4,0.1-2.7,0.9-3.5,2.1c0,0,0.2,1.7,2.8,2.8c0.9,0.2,1.8,0.2,2.7,0
			c0,0-4.2,4.4,0.8,5.5c1.3,0.3,3.7-1.2,4.4-3.4c-0.6,0.3-1.3,0.6-2,0.8c-1.3,0.3-1.4-0.9,0.8-1.9C28.4,26.2,30.5,26.3,30.8,25.7z"
			/>
		<path class="st8" d="M41.5,31.2l-0.6,0.7v1h-1.3l-0.3,0.4l0.2,0.6h1.7c0.2,1.2-0.6,2.2-1.8,2.4c0,0,0,0,0,0
			c-2.5,0.3-5,0.3-7.5,0.1l-0.5-1.3l1-1.1l-1.2,0.3c-0.1,0-0.9-1.2-0.9-1.2c-0.1,1,1.4,4,1.4,4s8.9,0,10-0.8c3.2,0.7,6.5,1,9.7,0.8
			c0,0,1.5-2.9,1.6-4c-0.2,0-0.9,1.2-0.9,1.2L50.9,34l0.7,1.1l-0.3,1.2c-2.5,0.2-5,0.2-7.5,0c-1.1-0.2-1.8-1.2-1.8-2.3h1.7l0.3-0.6
			l-0.2-0.4h-1.5v-1L41.5,31.2z"/>
		<path class="st11" d="M42.2,68.5c0,0-0.3-1,2.5-5.5c1.5-2.6,4.4-4.1,7.4-3.9c0,0.1-4-1.8-7.7,2.2C42.3,63.6,42.2,68.5,42.2,68.5z"
			/>
		<path class="st11" d="M40.9,68.5c0,0,0.3-1-2.5-5.5c-1.5-2.6-4.4-4.1-7.4-3.9c0,0.1,4-1.8,7.7,2.2C40.8,63.6,40.9,68.5,40.9,68.5z
			"/>
		<path class="st11" d="M48.1,71.5c0.4-1.6,0.1-1.5,0-1.5c-1.5,3.6-5.7,5.3-9.3,3.8c-1.7-0.7-3.1-2.1-3.8-3.8c0.1,0-0.3-0.6,0,1.2
			c0.1,0.7,2.8,4.6,6.6,4.7S47.9,72.3,48.1,71.5z"/>
		<path class="st8" d="M40.1,55.9v1.6c0,0-3.1-3.2-14.6-1.2l2.2-2.2C36.2,52.7,39.6,55.2,40.1,55.9z"/>
		<path class="st8" d="M42.6,55.9v1.6c0,0,3.1-3.2,14.6-1.2l-2.2-2.2C46.5,52.7,43.1,55.2,42.6,55.9z"/>
		<rect x="58.6" y="41.3" class="st13" width="3.7" height="2.1"/>
		<rect x="58.5" y="45" class="st13" width="3.7" height="2.1"/>
		<rect x="58.5" y="48.7" class="st13" width="3.7" height="2.1"/>
		<rect x="20.3" y="41.3" class="st13" width="4.4" height="2.1"/>
		<rect x="20.3" y="45" class="st13" width="4.4" height="2.1"/>
		<rect x="20.3" y="48.7" class="st13" width="4.4" height="2.1"/>
		<path class="st14" d="M11.4,9.7h60.4c4.3,50.4-9,63.6-30.3,75.1C20.5,73.3,7,59.7,11.4,9.7z"/>
		<path class="st15" d="M14,12.3h55.1c4,45.9-8.2,58.9-27.6,69.4C22.4,71.2,10.1,57.8,14,12.3z"/>
		<g>
			<path class="st16" d="M104.6,49c-3.5-1.6-10-2.7-13.7-1c-3.3,1.6-4.8,3.9-5,6.9c-0.2,3.7,1.4,6.2,5.4,9.2l1.4,1.1
				c2.7,2,4.5,4.2,4.5,6.5c-0.1,2-1.2,3.8-2.9,4.7c-1.8,1.2-4,1.4-6,0.7c-3-1.3-3.3-3.7-3.8-6h-0.9l-1.3,6.7
				c4.7,1.6,10.9,1.9,14.3,0.5c3.1-1.1,5.2-3.9,5.5-7.1c0.4-3.3-0.7-5.7-4.9-9.1l-2-1.7c-3.1-2.6-4.6-4-4.3-6.7
				c0.1-1.8,1.1-3.4,2.7-4.3c1.7-1,3.9-1,5.7-0.1c2.7,1.4,3,3.5,3.4,5.7h0.8L104.6,49z"/>
		</g>
		<g>
			<path class="st16" d="M117.6,54.3l-5.5,1.2l-0.7,3.8h-3.9l-0.3,1.7h3.9l-2.2,11.5c-0.3,1.7-1,4.1,0.3,5.6c0.7,0.7,1.7,1.1,2.7,1
				c2.4-0.3,4-2.2,6.2-5.3c0.1-0.2,0-0.4-0.2-0.5c-0.1-0.1-0.3,0-0.4,0.1c-0.8,1-1.7,1.9-2.7,2.6c-0.4,0.2-0.6,0.3-0.9,0
				s0.2-3.4,0.3-3.7l2.3-11.3h4.6l0.3-1.7h-4.5L117.6,54.3z"/>
		</g>
		<g>
			<path class="st16" d="M123.4,73.3c-1.3,0.4-2.2,1.6-2.1,3c0.1,1,0.6,1.9,1.5,2.4c0.8,0.4,1.8,0.4,2.6,0c1.4-0.7,2.1-2.4,1.4-3.8
				c-0.2-0.4-0.5-0.8-0.8-1C125.2,73.2,124.3,73,123.4,73.3"/>
		</g>
		<g>
			<path class="st16" d="M162.1,49c-3.5-1.6-10-2.7-13.7-1c-2.9,1.1-4.9,3.8-5,6.9c-0.2,3.7,1.4,6.2,5.4,9.2l1.4,1.1
				c2.7,2,4.5,4.2,4.5,6.5c0,2-1.1,3.8-2.8,4.7c-1.8,1.2-4,1.4-6,0.7c-3-1.3-3.3-3.7-3.8-6h-0.9l-1.3,6.7c4.7,1.6,10.9,1.9,14.3,0.5
				c3-1.1,5.2-3.9,5.5-7.1c0.4-3.3-0.7-5.7-4.9-9.1l-2-1.7c-3.1-2.6-4.6-4-4.4-6.7c0.1-1.8,1.1-3.4,2.7-4.3c1.7-1,3.9-1,5.6-0.1
				c2.7,1.4,3,3.5,3.4,5.7h0.8L162.1,49z"/>
		</g>
		<g>
			<path class="st16" d="M182.2,59.1c-2.7-1.2-5.8-1.3-8.5-0.2c-4.4,1.7-7.6,5.5-8.8,10c-0.6,2.1-0.9,6,1,8.1
				c1.6,1.9,4.4,2.3,6.2,2.2c2.9-0.4,5.7-2.6,7.5-5.3l-0.5-0.6c-0.2,0.2-0.6,0.7-0.7,0.8l-0.9,0.9c-0.6,0.6-1.3,1.1-2.1,1.5
				c-1.2,0.7-2.7,0.7-3.9,0c-1.9-1.2-1.9-3.9-1.9-5.2c0-3.2,1.9-8.7,5.7-11c0.9-0.7,2-0.9,3.1-0.6c1.6,0.8,1.6,3.4,1.7,4.1h0.8
				l1.4-4C182.4,59.4,182.4,59.5,182.2,59.1"/>
		</g>
		<g>
			<path class="st16" d="M201.8,74.2l2.4-9.1c0.2-0.7,1.2-4.5,0-5.9c-0.7-0.8-1.8-1.2-2.9-1c-3.5,0.5-6.1,4.8-8.4,8.5l-1.2,1.9
				l2.3-10.9l2.6-12.1c0-0.1,0-0.1,0-0.2c-0.1-0.1-0.2-0.1-0.2-0.1l-8.6,1.7l0.1,0.4c0.7,0,1.3,0.2,1.9,0.6c1.2,0.9,0.7,3,0.4,4.4
				l-1.1,5.1l-2,9.5l-2.5,12.4l5-0.5c0,0,0.3-1.3,0.9-3.2c0.2-0.6,0.4-1.1,0.5-1.6c1.5-4.1,5.4-12,8-13.1c0.7-0.1,0.8,0.5,0.7,0.9
				c-0.1,0.4-0.2,0.7-0.3,1.1l-2.5,9.3c-0.8,3.4-1.1,4.5,0,5.8c0.6,0.6,1.5,0.9,2.4,0.8c2.1-0.2,5.1-3.4,6.3-5.6l-0.4-0.5
				c0,0-1.3,1.5-1.5,1.7c-0.2,0.3-0.4,0.5-0.7,0.7c-0.4,0.3-0.7,0.5-1,0.3C201.5,75.4,201.6,74.9,201.8,74.2"/>
		</g>
		<g>
			<path class="st16" d="M244.5,45.4l-8.6,1.7l0.1,0.4c1.1,0.2,1.7,0.3,1.9,0.6c1.3,0.9,0.7,3,0.4,4.4l-1.1,5.1l-2,9.5l-1.2,5.8
				c-0.5,2.2-0.9,4,0.4,5.5c0.6,0.7,1.6,1,2.5,0.8c2.1-0.3,4.7-3.3,5.9-5.4l-0.7-0.4c-0.1,0.1-0.2,0.2-0.2,0.3l-0.8,1
				c-0.3,0.3-0.6,0.6-0.9,0.9c-0.3,0.2-0.6,0.3-1,0.3c-0.7-0.2-0.7-0.6-0.6-1s0.1-0.9,0.2-1.2l1.5-6.9l1.9-8.9l2.5-12.1
				c0-0.1,0-0.1,0-0.2C244.6,45.5,244.4,45.5,244.5,45.4"/>
		</g>
		<g>
			<path class="st16" d="M285.5,59.6c0-0.2,0-0.3-0.2-0.5c-2.6-1.1-5.5-1.2-8.1-0.2c-1.9,0.8-3.3,2.6-3.4,4.7
				c-0.3,2.6,0.9,5.1,3.5,7.2l0.6,0.5c1.8,1.5,2.5,2.3,2.4,3.8c-0.1,1-0.6,1.8-1.5,2.2c-1,0.5-2.2,0.5-3.3,0c-1.8-1-2.1-2-2.2-3.7
				c0-0.2-0.7-0.2-0.8,0c-0.2,1-0.8,3.5-1,4.4c0,0.3,0,0.3,0.2,0.4c2.4,0.8,5,1.1,7.6,0.8c2.2-0.3,4-1.7,4.9-3.7
				c0.8-2,0.5-4.4-0.7-6.2c-0.9-1.3-5.4-4.8-5.6-6.5c-0.1-0.8,0.2-1.5,0.8-2c0.8-0.6,1.9-0.7,2.8-0.4c1.7,0.4,2.2,1.6,2.5,3.2
				c0,0.2,0.2,0.3,0.4,0.2c0.1,0,0.2-0.1,0.2-0.2C284.9,62.2,285.2,60.9,285.5,59.6"/>
		</g>
		<g>
			<path class="st16" d="M300.6,54.3l-5.5,1.2l-0.7,3.8h-3.9l-0.3,1.7h3.9l-2.2,11.5c-0.3,1.7-1,4.1,0.3,5.6c0.7,0.7,1.7,1.1,2.7,1
				c2.5-0.3,4.1-2.2,6.2-5.3c0.2-0.3-0.3-0.7-0.6-0.4c-0.8,1-1.7,1.9-2.7,2.6c-0.4,0.2-0.6,0.3-1,0s0.3-3.4,0.3-3.7l2.2-11.3h4.6
				l0.3-1.7h-4.5L300.6,54.3z"/>
		</g>
		<g>
			<path class="st16" d="M336.6,59.1c-2.7-1.2-5.8-1.3-8.5-0.2c-4.4,1.7-7.6,5.5-8.8,10c-0.6,2.1-0.9,6,1,8.1
				c1.6,1.9,4.4,2.3,6.2,2.2c2.9-0.4,5.7-2.6,7.5-5.3l-0.5-0.6c-0.2,0.2-0.5,0.7-0.7,0.8l-1,0.9c-0.6,0.6-1.3,1.1-2.1,1.5
				c-1.2,0.7-2.7,0.7-3.9,0c-2-1.2-1.9-3.9-1.9-5.2c0-3.2,1.9-8.7,5.7-11c0.9-0.7,2-0.9,3.1-0.6c1.6,0.8,1.6,3.4,1.7,4.1h0.8l1.4-4
				C336.7,59.4,336.7,59.5,336.6,59.1"/>
		</g>
		<g>
			<path class="st17" d="M219.8,58.3c-1.4,0.2-2.7,0.7-3.9,1.4c-4.4,2.5-6,7.6-6.2,10.4c-0.2,2.3,0.6,5.9,3,7.6
				c2.3,1.6,5.2,1.9,7.8,0.9c4.3-1.6,6.9-6.3,7.8-9.6c0.7-3,0.4-6-1.8-8.4C224.7,58.8,222.2,57.9,219.8,58.3 M214.8,72.8
				c0.1-1.7,1.8-11.3,4.7-13c0.7-0.4,1.7-0.5,2.4-0.1c1.3,0.9,1.5,3.7,1.5,4.8c-0.1,1.9-1.5,11.5-5.1,13.3c-0.7,0.4-1.5,0.4-2.2,0
				C214.8,76.8,214.7,73.9,214.8,72.8"/>
		</g>
		<g>
			<path class="st17" d="M266.8,58.7c-1.6-0.4-3.1-0.5-4.7-0.5c-6.2-0.1-11.9,3.2-14.9,8.6c-1.5,2.6-2.9,7.4-1.4,10
				c0.8,1.6,2.4,2.5,4.2,2.4c4-0.1,7.1-5.7,8.9-8.8l0.6-1.2l-0.5,2.8c-0.3,1.5-1,4.8,0.2,6.2c0.5,0.7,1.4,1,2.2,0.9
				c2.4-0.2,5-3.5,6.3-5.7l-0.6-0.4c-0.4,0.5-0.8,1-1.3,1.5c-0.4,0.5-0.8,0.9-1.4,1.1c-0.6,0-0.6-0.5-0.6-1.5c0-0.3,0.2-0.9,0.3-1.6
				l2.7-13.1C266.9,59,266.9,58.9,266.8,58.7 M260.3,59.8c0.3,0.1,0.9,0.1,1.1,0.6c-0.5,2.3-4.8,15.2-8.9,16.4
				c-0.6,0.2-1.3,0-1.7-0.5c-1.3-1.3,0.7-7.3,1-8.1c0.9-2.5,3.5-7.9,7.4-8.4C259.5,59.7,259.8,59.7,260.3,59.8"/>
		</g>
		<g>
			<path class="st17" d="M312.5,48.5c-0.5,0.2-1,0.5-1.5,0.8c-0.8,0.6-1.3,1.7-1.1,2.7c0,0.8,0.5,1.6,1.3,1.9c1,0.4,2.1,0.4,3-0.1
				c1-0.6,1.7-1.6,1.8-2.8c0.1-0.8-0.2-1.6-0.9-2.2C314.3,48.4,313.4,48.3,312.5,48.5 M310.4,58.7l-0.3,0.1
				c-1.7,1.2-3.2,2.6-4.5,4.3c-0.1,0.1-0.2,0.3-0.4,0.5l0.8,0.6c0.3-0.2,1.1-1.2,1.2-1.3c0.8-0.8,0.9-1,1.4-1c0.5,0,0.6,0.7,0.5,1
				c0,0.4-0.1,0.8-0.2,1.1l-1.8,8.4c-0.7,3.4-1.1,4.5,0,5.8c0.6,0.6,1.5,0.9,2.4,0.8c2.1-0.2,5.1-3.4,6.4-5.6l-0.5-0.5
				c0,0-1.3,1.5-1.5,1.7c-0.2,0.3-0.5,0.5-0.7,0.7c-0.4,0.3-0.7,0.5-1,0.3c-0.6-0.2-0.5-0.7-0.3-1.4l2-9.2c0.4-2,1.3-4.9-0.3-6.3
				C312.7,58,311.4,58,310.4,58.7"/>
		</g>
		<g>
			<path class="st17" d="M359.4,58.7c-1.6-0.4-3.1-0.5-4.7-0.5c-6.2-0.1-11.9,3.2-14.9,8.6c-1.5,2.6-2.9,7.4-1.4,10
				c0.8,1.6,2.4,2.5,4.2,2.4c4-0.1,7.2-5.7,8.9-8.8l0.6-1.2l-0.5,2.8c-0.3,1.5-1,4.8,0.2,6.2c0.5,0.7,1.4,1,2.2,0.9
				c2.4-0.2,5-3.5,6.3-5.7l-0.6-0.4c-0.1,0.2-1,1.2-1.3,1.5c-0.4,0.5-0.9,0.8-1.4,1.1c-0.6,0-0.6-0.5-0.6-1.5c0-0.3,0.2-0.9,0.3-1.6
				l2.7-13C359.5,59,359.5,58.9,359.4,58.7 M352.9,59.8c0.3,0.1,0.9,0.1,1.1,0.6c-0.5,2.3-4.8,15.2-8.9,16.4c-0.6,0.2-1.3,0-1.7-0.5
				c-1.2-1.3,0.7-7.3,1-8.1c0.9-2.5,3.4-7.9,7.4-8.4C352,59.7,352.4,59.7,352.9,59.8"/>
		</g>
		<g>
			<path class="st17" d="M208.2,26l-2.3-0.1c-2.1-0.1-4.2-1.1-6.3,0.2c-1.2,0.6-1.9,1.8-1.9,3.2c0,1.5,1,2.8,2.3,3.4
				c-0.3,0.2-0.7,0.5-1,0.7c-0.9,0.6-1.4,1.2-1.3,1.8c0.1,0.8,0.8,1.2,1.4,1.5c-0.9,0.2-1.7,0.9-2.2,1.7c-0.4,1-0.4,2.1,0.1,3
				c1.1,1.9,3.3,2.1,4.7,2.1c1.8,0,4-0.5,5.1-2.2c0.7-1.1,0.8-2.5,0.2-3.7c-0.8-1.8-2.6-2-4.6-2.1c-0.3,0-0.5,0-0.9,0
				c-0.9-0.1-1.9-0.2-2.2-0.7c-0.1-0.2-0.1-0.4,0.2-0.8c0.3-0.4,0.7-0.8,1.2-1c0.4-0.1,0.8-0.1,1.2,0c1.5,0.1,3-0.7,3.8-2
				c0.7-1.3,0.6-2.9-0.3-4.1h2.1C207.9,26.7,208.1,26.4,208.2,26 M200.1,26.8c0.2-0.2,0.5-0.5,0.7-0.6c0.6-0.4,1.4-0.4,2,0
				c1,0.6,1.6,1.6,1.6,2.7c0.2,1.1-0.2,2.3-1,3.2c-0.6,0.5-1.4,0.6-2.1,0.4c-0.9-0.2-1.6-1-1.8-1.9
				C199.3,29.2,199.4,27.9,200.1,26.8 M197.7,39.4c0.2-1.1,1-2,2.1-2.3c1.1-0.3,4.6,0,5.6,1c0.6,0.6,0.8,1.5,0.6,2.3
				c-0.3,1.2-1.2,2.1-2.4,2.4c-1.2,0.4-4.1,0.3-5.3-0.9C197.7,41.2,197.5,40.3,197.7,39.4"/>
			<path class="st18" d="M208.2,26l-2.3-0.1c-2.1-0.1-4.2-1.1-6.3,0.2c-1.2,0.6-1.9,1.8-1.9,3.2c0,1.5,1,2.8,2.3,3.4
				c-0.3,0.2-0.7,0.5-1,0.7c-0.9,0.6-1.4,1.2-1.3,1.8c0.1,0.8,0.8,1.2,1.4,1.5c-0.9,0.2-1.7,0.9-2.2,1.7c-0.4,1-0.4,2.1,0.1,3
				c1.1,1.9,3.3,2.1,4.7,2.1c1.8,0,4-0.5,5.1-2.2c0.7-1.1,0.8-2.5,0.2-3.7c-0.8-1.8-2.6-2-4.6-2.1c-0.3,0-0.5,0-0.9,0
				c-0.9-0.1-1.9-0.2-2.2-0.7c-0.1-0.2-0.1-0.4,0.2-0.8c0.3-0.4,0.7-0.8,1.2-1c0.4-0.1,0.8-0.1,1.2,0c1.5,0.1,3-0.7,3.8-2
				c0.7-1.3,0.6-2.9-0.3-4.1h2.1C207.9,26.7,208.1,26.4,208.2,26z M200.2,26.8c0.2-0.2,0.5-0.5,0.7-0.6c0.6-0.4,1.4-0.4,2,0
				c1,0.6,1.6,1.6,1.6,2.7c0.2,1.1-0.2,2.3-1,3.2c-0.6,0.5-1.4,0.6-2.1,0.4c-0.9-0.2-1.6-1-1.8-1.9
				C199.3,29.2,199.5,27.8,200.2,26.8L200.2,26.8z M197.7,39.3c0.2-1.1,1-2,2.1-2.3c1.1-0.3,4.6,0,5.6,1c0.6,0.6,0.8,1.5,0.6,2.3
				c-0.3,1.2-1.2,2.1-2.4,2.4c-1.2,0.4-4.1,0.3-5.3-0.9C197.8,41.2,197.5,40.2,197.7,39.3L197.7,39.3z"/>
		</g>
		<g>
			<path class="st17" d="M129.1,26.4c1.1,0.6,1.9,1.8,1.8,3.1h-6.3c0-1.2,0.6-2.4,1.7-3C127.2,26,128.2,26,129.1,26.4 M132.9,30.1
				c0.1-0.7-0.1-1.5-0.4-2.1c-0.6-1.3-1.9-2.2-3.4-2.4c-1.8-0.2-3.6,0.4-4.8,1.8c-1.3,1.6-1.8,3.7-1.4,5.7c0.4,1.9,1.7,3.5,3.5,4.1
				c2,0.6,4.2,0.3,6-0.9v-0.2h-0.4c-1.8,0.5-3.4,1.1-5.1,0c-1.9-1.3-2.3-4.4-2.3-5.7h8.1L132.9,30.1z"/>
			<path class="st18" d="M129.1,26.4c1.1,0.6,1.9,1.8,1.8,3.1h-6.3c0-1.2,0.6-2.4,1.7-3C127.2,26,128.2,26,129.1,26.4z M132.9,30.1
				c0.1-0.7-0.1-1.5-0.4-2.1c-0.6-1.3-1.9-2.2-3.4-2.4c-1.8-0.2-3.6,0.4-4.8,1.8c-1.3,1.6-1.8,3.7-1.4,5.7c0.4,1.9,1.7,3.5,3.5,4.1
				c2,0.6,4.2,0.3,6-0.9v-0.2h-0.4c-1.8,0.5-3.4,1.1-5.1,0c-1.9-1.3-2.3-4.4-2.3-5.7h8.1L132.9,30.1z"/>
		</g>
		<g>
			<path class="st17" d="M165.1,25.6c-0.7,0.1-1.3,0.4-1.9,0.8c-1.7,1-2.7,2.8-2.8,4.8c-0.2,2,0.7,4,2.3,5.2
				c1.6,1.1,3.7,1.4,5.6,0.8c1.9-0.6,3.3-2.2,3.7-4.2c0.4-2.1-0.2-4.2-1.6-5.7C169,25.8,167,25.2,165.1,25.6 M162.6,28.3
				c0.3-1,1.2-1.8,2.2-2.1c1.3-0.3,2.6,0.1,3.5,1.1c1.7,1.8,2.1,5.4,1.5,7.2c-0.3,1.2-1.3,2.2-2.6,2.4c-1.4,0.2-2.8-0.4-3.6-1.6
				C162.3,33.2,161.9,30.7,162.6,28.3"/>
			<path class="st18" d="M165.1,25.6c-0.7,0.1-1.3,0.4-1.9,0.8c-1.7,1-2.7,2.8-2.8,4.8c-0.2,2,0.7,4,2.3,5.2
				c1.6,1.1,3.7,1.4,5.6,0.8c1.9-0.6,3.3-2.2,3.7-4.2c0.4-2.1-0.2-4.2-1.6-5.7C169,25.8,167,25.2,165.1,25.6z M162.6,28.3
				c0.3-1,1.2-1.8,2.2-2.1c1.3-0.3,2.6,0.1,3.5,1.1c1.7,1.8,2.1,5.4,1.5,7.2c-0.3,1.2-1.3,2.2-2.6,2.4c-1.4,0.2-2.8-0.4-3.6-1.6
				C162.3,33.2,161.9,30.7,162.6,28.3z"/>
		</g>
		<g>
			<path class="st17" d="M191.9,26.4c1.1,0.6,1.9,1.8,1.8,3.1h-6.3c0-1.2,0.6-2.4,1.7-3C190,26,191,26,191.9,26.4 M195.8,30.1
				c0.1-0.7-0.1-1.5-0.4-2.1c-0.6-1.3-1.9-2.2-3.4-2.4c-1.8-0.2-3.6,0.4-4.8,1.8c-1.3,1.6-1.8,3.7-1.4,5.7c0.4,1.9,1.7,3.5,3.5,4.1
				c2,0.6,4.2,0.3,6-0.9v-0.2h-0.4c-1.8,0.5-3.4,1.1-5.1,0c-1.9-1.3-2.3-4.4-2.3-5.7h8.1L195.8,30.1z"/>
			<path class="st18" d="M191.9,26.4c1.1,0.6,1.9,1.8,1.8,3.1h-6.3c0-1.2,0.6-2.4,1.7-3C190,26,191,26,191.9,26.4z M195.8,30.1
				c0.1-0.7-0.1-1.5-0.4-2.1c-0.6-1.3-1.9-2.2-3.4-2.4c-1.8-0.2-3.6,0.4-4.8,1.8c-1.3,1.6-1.8,3.7-1.4,5.7c0.4,1.9,1.7,3.5,3.5,4.1
				c2,0.6,4.2,0.3,6-0.9v-0.2h-0.4c-1.8,0.5-3.4,1.1-5.1,0c-1.9-1.3-2.3-4.4-2.3-5.7h8.1L195.8,30.1z"/>
		</g>
		<g>
			<path class="st17" d="M215.4,26.4c1.1,0.6,1.8,1.8,1.8,3.1h-6.3c0-1.2,0.6-2.4,1.7-3C213.4,26,214.5,26,215.4,26.4 M219.2,30.1
				c0.1-0.7-0.1-1.5-0.4-2.1c-0.7-1.3-1.9-2.2-3.4-2.4c-1.8-0.2-3.6,0.4-4.8,1.8c-1.3,1.6-1.8,3.7-1.4,5.7c0.4,1.9,1.7,3.5,3.5,4.1
				c2,0.6,4.2,0.3,6-0.9v-0.2h-0.3c-1.8,0.5-3.4,1.1-5.1,0c-1.9-1.3-2.3-4.4-2.3-5.7h8.1L219.2,30.1z"/>
			<path class="st18" d="M215.4,26.4c1.1,0.6,1.8,1.8,1.8,3.1h-6.3c0-1.2,0.6-2.4,1.7-3C213.5,26,214.5,26,215.4,26.4z M219.2,30.1
				c0.1-0.7-0.1-1.5-0.4-2.1c-0.7-1.3-1.9-2.2-3.4-2.4c-1.8-0.2-3.6,0.4-4.8,1.8c-1.3,1.6-1.8,3.7-1.4,5.7c0.4,1.9,1.7,3.5,3.5,4.1
				c2,0.6,4.2,0.3,6-0.9v-0.2h-0.3c-1.8,0.5-3.4,1.1-5.1,0c-1.9-1.3-2.3-4.4-2.3-5.7h8.1L219.2,30.1z"/>
		</g>
		<g>
			<path class="st17" d="M230.2,25.6c-0.7,0.1-1.3,0.4-1.9,0.8c-1.7,1-2.7,2.8-2.8,4.8c-0.2,2,0.7,4,2.3,5.2
				c1.6,1.1,3.7,1.4,5.6,0.8c1.9-0.6,3.3-2.2,3.7-4.2c0.4-2.1-0.2-4.2-1.6-5.7C234.1,25.8,232.1,25.2,230.2,25.6 M227.7,28.3
				c0.3-1,1.2-1.8,2.3-2.1c1.3-0.3,2.6,0.2,3.5,1.1c1.7,1.8,2.1,5.4,1.5,7.2c-0.3,1.2-1.3,2.2-2.6,2.4c-1.4,0.2-2.8-0.4-3.6-1.6
				C227.4,33.2,227,30.7,227.7,28.3"/>
			<path class="st18" d="M230.2,25.6c-0.7,0.1-1.3,0.4-1.9,0.8c-1.7,1-2.7,2.8-2.8,4.8c-0.2,2,0.7,4,2.3,5.2
				c1.6,1.1,3.7,1.4,5.6,0.8c1.9-0.6,3.3-2.2,3.7-4.2c0.4-2.1-0.2-4.2-1.6-5.7C234.1,25.8,232.1,25.2,230.2,25.6z M227.7,28.3
				c0.3-1,1.2-1.8,2.3-2.1c1.3-0.3,2.6,0.2,3.5,1.1c1.7,1.8,2.1,5.4,1.5,7.2c-0.3,1.2-1.3,2.2-2.6,2.4c-1.4,0.2-2.8-0.4-3.6-1.6
				C227.4,33.2,227,30.7,227.7,28.3z"/>
		</g>
		<g>
			<path class="st16" d="M97.3,19c-3.1,0-8-0.1-8-0.1L89.2,19v4.3c0,0.2,0.3,0.1,0.3,0c0.2-0.6,0.3-1.5,0.4-1.8c1-2,3.5-1.8,4.7-1.8
				h1.6v13.6c0,1.9,0.1,3.4-2,3.4c-0.2,0-0.2,0.4,0,0.4c0,0,1.8,0,2.9,0s3.1,0,3.1,0c0.2,0,0.2-0.4,0-0.4c-2.1,0-2.1-1.5-2.1-3.4
				V19.8h1.5c1.2,0,3.7-0.2,4.7,1.8c0.2,0.3,0.3,1.2,0.5,1.8c0,0.1,0.3,0.2,0.3,0V19l-0.2-0.1C105.1,18.9,100.4,19,97.3,19"/>
			<path class="st18" d="M97.3,19c-3.1,0-8-0.1-8-0.1L89.2,19v4.3c0,0.2,0.3,0.1,0.3,0c0.2-0.6,0.3-1.5,0.4-1.8c1-2,3.5-1.8,4.7-1.8
				h1.6v13.6c0,1.9,0.1,3.4-2,3.4c-0.2,0-0.2,0.4,0,0.4c0,0,1.8,0,2.9,0s3.1,0,3.1,0c0.2,0,0.2-0.4,0-0.4c-2.1,0-2.1-1.5-2.1-3.4
				V19.8h1.5c1.2,0,3.7-0.2,4.7,1.8c0.2,0.3,0.3,1.2,0.5,1.8c0,0.1,0.3,0.2,0.3,0V19l-0.2-0.1C105.1,18.9,100.4,19,97.3,19z"/>
		</g>
		<g>
			<path class="st16" d="M109.6,20.7V35c0,0.6-0.3,1.8-1.1,1.9c-0.2,0-0.4,0-0.6,0c-0.3,0-0.4,0.3,0,0.3c0,0,1.5-0.1,2.6-0.1
				c1,0,2.6,0.1,2.6,0.1c0.4,0,0.3-0.3,0-0.3c-0.2,0-0.4,0-0.5,0c-0.8-0.1-1.1-1.2-1.1-1.9v-4.3c0-2-0.2-2.1,1.4-3.2
				c0.9-0.7,2.2-0.8,3.2-0.3c1.8,0.9,1.5,4.1,1.5,5.2V35c0,0.6-0.3,1.8-1.1,1.9c-0.2,0-0.4,0-0.5,0c-0.3,0-0.4,0.3,0,0.3
				c0,0,1.5-0.1,2.5-0.1s2.6,0.1,2.6,0.1c0.4,0,0.3-0.3,0-0.3c-0.2,0-0.4,0-0.5,0c-0.8-0.1-1.1-1.2-1.1-1.9v-3.6
				c0-1.8,0.1-4.3-2.1-5.3c-1.8-0.8-3.9,0-5.8,1.5V17.1c0,0-0.8,0.5-1.7,0.9c-0.7,0.4-1.5,0.8-2,1c-0.1,0.1,0,0.3,0.2,0.3
				c0.7-0.1,0.8-0.2,1.2,0c0.5,0.3,0.7,0.9,0.6,1.4"/>
			<path class="st18" d="M109.6,20.7V35c0,0.6-0.3,1.8-1.1,1.9c-0.2,0-0.4,0-0.6,0c-0.3,0-0.4,0.3,0,0.3c0,0,1.5-0.1,2.6-0.1
				c1,0,2.6,0.1,2.6,0.1c0.4,0,0.3-0.3,0-0.3c-0.2,0-0.4,0-0.5,0c-0.8-0.1-1.1-1.2-1.1-1.9v-4.3c0-2-0.2-2.1,1.4-3.2
				c0.9-0.7,2.2-0.8,3.2-0.3c1.8,0.9,1.5,4.1,1.5,5.2V35c0,0.6-0.3,1.8-1.1,1.9c-0.2,0-0.4,0-0.5,0c-0.3,0-0.4,0.3,0,0.3
				c0,0,1.5-0.1,2.5-0.1s2.6,0.1,2.6,0.1c0.4,0,0.3-0.3,0-0.3c-0.2,0-0.4,0-0.5,0c-0.8-0.1-1.1-1.2-1.1-1.9v-3.6
				c0-1.8,0.1-4.3-2.1-5.3c-1.8-0.8-3.9,0-5.8,1.5V17.1c0,0-0.8,0.5-1.7,0.9c-0.7,0.4-1.5,0.8-2,1c-0.1,0.1,0,0.3,0.2,0.3
				c0.7-0.1,0.8-0.2,1.2,0C109.5,19.6,109.7,20.2,109.6,20.7z"/>
		</g>
		<g>
			<path class="st16" d="M176.3,35V17.1l-1.6,0.8c-0.7,0.4-1.6,0.8-2.1,1c-0.1,0.1,0,0.3,0.2,0.3c0.7-0.1,0.8-0.2,1.2,0
				c0.5,0.3,0.7,0.9,0.6,1.4V35c0,0.6-0.3,1.8-1.1,1.9c-0.2,0-0.4,0-0.5,0c-0.3,0-0.4,0.3,0,0.3c0,0,1.5-0.1,2.5-0.1
				s2.6,0.1,2.6,0.1c0.4,0,0.3-0.3,0-0.3c-0.2,0-0.4,0-0.6,0C176.6,36.7,176.3,35.6,176.3,35"/>
			<path class="st18" d="M176.3,35V17.1l-1.6,0.8c-0.7,0.4-1.6,0.8-2.1,1c-0.1,0.1,0,0.3,0.2,0.3c0.7-0.1,0.8-0.2,1.2,0
				c0.5,0.3,0.7,0.9,0.6,1.4V35c0,0.6-0.3,1.8-1.1,1.9c-0.2,0-0.4,0-0.5,0c-0.3,0-0.4,0.3,0,0.3c0,0,1.5-0.1,2.5-0.1
				s2.6,0.1,2.6,0.1c0.4,0,0.3-0.3,0-0.3c-0.2,0-0.4,0-0.6,0C176.6,36.7,176.3,35.6,176.3,35z"/>
		</g>
		<g>
			<path class="st16" d="M182.7,35V17.1l-1.6,0.8c-0.7,0.4-1.6,0.8-2.1,1c-0.1,0.1,0,0.3,0.2,0.3c0.7-0.1,0.8-0.2,1.2,0
				c0.5,0.3,0.7,0.9,0.6,1.4V35c0,0.6-0.3,1.8-1.1,1.9c-0.2,0-0.4,0-0.5,0c-0.3,0-0.4,0.3,0,0.3c0,0,1.5-0.1,2.5-0.1
				s2.6,0.1,2.6,0.1c0.4,0,0.3-0.3,0-0.3c-0.2,0-0.4,0-0.6,0C183,36.7,182.7,35.6,182.7,35"/>
			<path class="st18" d="M182.7,35V17.1l-1.6,0.8c-0.7,0.4-1.6,0.8-2.1,1c-0.1,0.1,0,0.3,0.2,0.3c0.7-0.1,0.8-0.2,1.2,0
				c0.5,0.3,0.7,0.9,0.6,1.4V35c0,0.6-0.3,1.8-1.1,1.9c-0.2,0-0.4,0-0.5,0c-0.3,0-0.4,0.3,0,0.3c0,0,1.5-0.1,2.5-0.1
				s2.6,0.1,2.6,0.1c0.4,0,0.3-0.3,0-0.3c-0.2,0-0.4,0-0.6,0C182.9,36.7,182.7,35.6,182.7,35z"/>
		</g>
		<g>
			<path class="st16" d="M241.1,27.1V35c0,0.6-0.3,1.8-1.1,1.9c-0.2,0-0.4,0-0.5,0c-0.3,0-0.4,0.3,0,0.3c0,0,1.5,0,2.5,0
				s2.6,0,2.6,0c0.3,0,0.3-0.3,0-0.3c-0.2,0-0.4,0-0.5,0c-0.9-0.1-1.1-1.2-1.1-1.9v-7.8h3.7l0.3-0.8H243v-3.6c0-1.2-0.1-3.3,1.3-4.3
				c0.7-0.5,1.5-0.6,2.3-0.3c1,0.4,1.7,1.2,1.8,2.3c0.1,0.1,0.2,0.1,0.2,0c0,0,0.1-0.1,0.1-0.1v-3c-1.6-0.3-3.2-0.1-4.7,0.6
				c-2.8,1.6-2.7,4.4-2.7,6.4v2.1h-2.3v0.8H241.1z"/>
			<path class="st18" d="M241.1,27.1V35c0,0.6-0.3,1.8-1.1,1.9c-0.2,0-0.4,0-0.5,0c-0.3,0-0.4,0.3,0,0.3c0,0,1.5,0,2.5,0
				s2.6,0,2.6,0c0.3,0,0.3-0.3,0-0.3c-0.2,0-0.4,0-0.5,0c-0.9-0.1-1.1-1.2-1.1-1.9v-7.8h3.7l0.3-0.8H243v-3.6c0-1.2-0.1-3.3,1.3-4.3
				c0.7-0.5,1.5-0.6,2.3-0.3c1,0.4,1.7,1.2,1.8,2.3c0.1,0.1,0.2,0.1,0.2,0c0,0,0.1-0.1,0.1-0.1v-3c-1.6-0.3-3.2-0.1-4.7,0.6
				c-2.8,1.6-2.7,4.4-2.7,6.4v2.1h-2.3v0.8H241.1z"/>
		</g>
		<g>
			<path class="st16" d="M156.4,19.5c-0.1-0.1-0.7-0.2-0.7-0.3l-0.8-0.1c-2.7-0.6-8.6-1.3-11.8,2.2c-2.3,2.8-3.1,6.5-2.4,10
				c0.9,3,3.3,5.2,6.4,5.8c3.6,0.9,7.5-0.2,10.1-2.8l-0.1-1.4l-0.1-0.1l-0.1,0.1l-0.1,0.1l-0.1,0.1c-0.1,0.1-0.2,0.3-0.3,0.4
				c-0.1,0.2-0.4,0.4-0.7,0.8c-2.3,2.2-4.6,3-6.9,2.5c-2.6-0.5-4.8-2.3-5.7-4.8c-1-2.4-0.9-7.3,0.8-9.8c1.4-1.9,3.6-3.1,6-3
				c2.6,0,4.5,0.6,6.6,3.6c0-0.1,0-0.3,0.1-0.4L156.4,19.5z"/>
			<path class="st18" d="M156.4,19.5c-0.1-0.1-0.7-0.2-0.7-0.3l-0.8-0.1c-2.7-0.6-8.6-1.3-11.8,2.2c-2.3,2.8-3.1,6.5-2.4,10
				c0.9,3,3.3,5.2,6.4,5.8c3.6,0.9,7.5-0.2,10.1-2.8l-0.1-1.4l-0.1-0.1l-0.1,0.1l-0.1,0.1l-0.1,0.1c-0.1,0.1-0.2,0.3-0.3,0.4
				c-0.1,0.2-0.4,0.4-0.7,0.8c-2.3,2.2-4.6,3-6.9,2.5c-2.6-0.5-4.8-2.3-5.7-4.8c-1-2.4-0.9-7.3,0.8-9.8c1.4-1.9,3.6-3.1,6-3
				c2.6,0,4.5,0.6,6.6,3.6c0-0.1,0-0.3,0.1-0.4L156.4,19.5z"/>
		</g>
	</g>
</g>
</svg>
