<svg width="37" height="50" fill="none" xmlns="http://www.w3.org/2000/svg"><path fill-rule="evenodd" clip-rule="evenodd" d="M1.246 48.223a1.104 1.104 0 0 1-.495-.922V17.892c0-.61.323-1.172.849-1.477L27.713 1.287a1.468 1.468 0 0 1 1.326-.079c.574.248 1.375.596 1.88.813a.786.786 0 0 1 .474.72v29.865c0 .516-.278.99-.728 1.248L3.766 49.157c-.36.205-.804.19-1.151-.037-.414-.272-.97-.637-1.369-.897Z" fill="#E5F1FC"/><path fill-rule="evenodd" clip-rule="evenodd" d="m1.026 48.559 1.368.897c.472.311 1.079.33 1.571.051l26.9-15.303a1.84 1.84 0 0 0 .93-1.598V2.74c0-.474-.281-.9-.716-1.09l-1.88-.81a1.872 1.872 0 0 0-1.689.097L1.4 16.064a2.113 2.113 0 0 0-1.054 1.828v29.41c0 .507.257.981.68 1.257Zm.444-.671a.699.699 0 0 1-.317-.586v-29.41c0-.465.247-.897.65-1.13L27.914 1.635c.293-.17.653-.19.964-.058l1.88.813c.138.06.229.2.229.35v29.866c0 .372-.2.713-.523.897L3.567 48.806a.7.7 0 0 1-.732-.024l-1.365-.894Z" fill="#1B374C"/><path fill-rule="evenodd" clip-rule="evenodd" d="M31.14 2.22 4.25 17.635a1.76 1.76 0 0 0-.885 1.523l-.103 30.107a.151.151 0 0 0 .302 0l.103-30.107c0-.52.281-1 .734-1.26L31.288 2.483a.15.15 0 0 0 .058-.205.15.15 0 0 0-.206-.058Z" fill="#1B374C"/><path fill-rule="evenodd" clip-rule="evenodd" d="m29.535 5.367-18.808 10.88.016 2.278L29.535 7.83V5.367Z" fill="#fff"/><path d="M8.76 19.479c.614-.354 1.112-1.138 1.112-1.752 0-.614-.498-.825-1.112-.471-.613.354-1.111 1.138-1.111 1.752 0 .614.498.825 1.111.471Z" fill="#83C11F" fill-opacity=".16"/><path d="M6.166 20.918c.614-.353 1.111-1.137 1.111-1.751 0-.614-.497-.825-1.111-.472-.614.354-1.112 1.138-1.112 1.752 0 .614.498.825 1.112.471Z" fill="#FF0002" fill-opacity=".13"/><path fill-rule="evenodd" clip-rule="evenodd" d="M29.535 9.953 5.117 23.625 5.053 46.48l24.482-13.968V9.953Z" fill="#FEFFFF"/><path fill-rule="evenodd" clip-rule="evenodd" d="M27.62 21.774 7.27 33.206l-.033 1.535 20.383-11.47v-1.497ZM27.62 24.145 7.27 35.578l-.033 1.535 20.383-11.47v-1.498ZM27.62 28.257 7.27 39.69l-.033 1.536L27.62 29.754v-1.497ZM27.62 30.63 7.27 42.06l-.033 1.536L27.62 32.126v-1.497Z" fill="#E5F1FC"/><path fill-rule="evenodd" clip-rule="evenodd" d="M29.686 9.953a.15.15 0 0 0-.072-.13.158.158 0 0 0-.152-.003L5.042 23.492a.157.157 0 0 0-.076.133l-.064 22.853c0 .054.03.105.076.133a.15.15 0 0 0 .15 0l24.483-13.965a.15.15 0 0 0 .075-.133V9.953ZM5.268 23.713l-.06 22.505 24.176-13.792V10.21L5.268 23.712Z" fill="#1B374C"/><path fill-rule="evenodd" clip-rule="evenodd" d="M27.63 12.027 7.28 23.474l-.053 6.881L27.63 19.083v-7.056Z" fill="#0482DF" fill-opacity=".2"/><path fill-rule="evenodd" clip-rule="evenodd" d="m27.632 11.977 8.898.587-.118 7.873L12.36 33.846l-5.134-3.493.052-6.88 20.354-11.495Z" fill="#63AEED" fill-opacity=".15"/><path fill-rule="evenodd" clip-rule="evenodd" d="M36.753 12.832a.266.266 0 0 0-.133-.234.267.267 0 0 0-.27-.005l-23.753 13.03a.515.515 0 0 0-.265.447c-.01 1.278-.046 6.26-.058 7.613 0 .07.036.137.1.171.06.037.136.038.196.004 2.562-1.414 20.853-11.519 23.787-13.14a.766.766 0 0 0 .396-.671v-7.215Z" fill="#0482DF"/><path fill-rule="evenodd" clip-rule="evenodd" d="M35.687 16.188a.271.271 0 0 0-.401-.24l-5.47 2.966a.51.51 0 0 0-.268.447l-.012 2.074a.2.2 0 0 0 .295.176l5.457-2.986a.767.767 0 0 0 .4-.674v-1.763Z" fill="#83C11F"/><path fill-rule="evenodd" clip-rule="evenodd" d="M28.629 20.167a.272.272 0 0 0-.4-.24l-13.787 7.437a.509.509 0 0 0-.269.444l-.028 2.086a.196.196 0 0 0 .096.173.197.197 0 0 0 .197.005l13.789-7.467a.768.768 0 0 0 .402-.676v-1.762Z" fill="#fff"/></svg>