<svg width="38" height="50" fill="none" xmlns="http://www.w3.org/2000/svg"><path fill-rule="evenodd" clip-rule="evenodd" d="M1.246 48.223a1.104 1.104 0 0 1-.495-.922V17.892c0-.61.323-1.172.849-1.477L27.713 1.287a1.468 1.468 0 0 1 1.326-.079c.574.248 1.375.596 1.88.813a.786.786 0 0 1 .474.72v29.865c0 .516-.278.99-.728 1.248L3.766 49.157c-.36.205-.804.19-1.151-.037-.414-.272-.97-.637-1.369-.897Z" fill="#E5F1FC"/><path fill-rule="evenodd" clip-rule="evenodd" d="m1.026 48.559 1.368.897c.472.311 1.079.33 1.571.051l26.9-15.303a1.84 1.84 0 0 0 .93-1.598V2.74c0-.474-.281-.9-.716-1.09l-1.88-.81a1.872 1.872 0 0 0-1.689.097L1.4 16.064a2.113 2.113 0 0 0-1.054 1.828v29.41c0 .507.257.981.68 1.257Zm.444-.671a.699.699 0 0 1-.317-.586v-29.41c0-.465.247-.897.65-1.13L27.914 1.635c.293-.17.653-.19.964-.058l1.88.813c.138.06.229.2.229.35v29.866c0 .372-.2.713-.523.897L3.567 48.806a.7.7 0 0 1-.732-.024l-1.365-.894Z" fill="#1B374C"/><path fill-rule="evenodd" clip-rule="evenodd" d="M31.14 2.22 4.25 17.635a1.76 1.76 0 0 0-.885 1.523l-.103 30.107a.151.151 0 0 0 .302 0l.103-30.107c0-.52.281-1 .734-1.26L31.288 2.483a.15.15 0 0 0 .058-.205.15.15 0 0 0-.206-.058Z" fill="#1B374C"/><path fill-rule="evenodd" clip-rule="evenodd" d="m29.535 5.367-18.808 10.88.016 2.278L29.535 7.83V5.367Z" fill="#fff"/><path d="M8.76 19.479c.614-.354 1.112-1.138 1.112-1.752 0-.614-.498-.825-1.112-.471-.613.354-1.111 1.138-1.111 1.752 0 .614.498.825 1.111.471Z" fill="#83C11F" fill-opacity=".16"/><path d="M6.166 20.918c.614-.353 1.111-1.137 1.111-1.751 0-.614-.497-.825-1.111-.472-.614.354-1.112 1.138-1.112 1.752 0 .614.498.825 1.112.471Z" fill="#FF0002" fill-opacity=".13"/><path fill-rule="evenodd" clip-rule="evenodd" d="M29.535 9.953 5.117 23.625 5.053 46.48l24.482-13.968V9.953Z" fill="#BCDEF7"/><path fill-rule="evenodd" clip-rule="evenodd" d="M29.686 9.953a.15.15 0 0 0-.072-.13.158.158 0 0 0-.152-.003L5.042 23.492a.157.157 0 0 0-.076.133l-.064 22.853c0 .054.03.105.076.133a.15.15 0 0 0 .15 0l24.483-13.965a.15.15 0 0 0 .075-.133V9.953ZM5.268 23.713l-.06 22.505 24.176-13.792V10.21L5.268 23.712Z" fill="#1B374C"/><path fill-rule="evenodd" clip-rule="evenodd" d="m29.536 9.954 7.604.366-2.17 17.273-21.816 18.514-8.1.372.06-22.854 24.422-13.67Z" fill="#63AEED" fill-opacity=".15"/><path fill-rule="evenodd" clip-rule="evenodd" d="M37.14 10.319 13.215 23.714l-.063 22.396L37.14 32.424V10.319Z" fill="#0482DF"/><path fill-rule="evenodd" clip-rule="evenodd" d="M33.512 16.5a.167.167 0 0 0-.084-.144.172.172 0 0 0-.166-.002c-1.762.985-12.318 6.896-14.397 8.06a.7.7 0 0 0-.356.605 8216.72 8216.72 0 0 0-.017 6.687.234.234 0 0 0 .117.206.241.241 0 0 0 .237.002c2.087-1.19 12.662-7.221 14.432-8.233a.5.5 0 0 0 .253-.434c-.004-1.177-.017-5.58-.019-6.747Z" fill="#BCDEF7"/><path fill-rule="evenodd" clip-rule="evenodd" d="M33.512 24.88a.147.147 0 0 0-.22-.13c-1.736.972-13.215 7.398-14.637 8.196a.275.275 0 0 0-.144.245l-.008 2.165c0 .05.028.097.07.123a.137.137 0 0 0 .142 0l14.591-8.298a.442.442 0 0 0 .223-.388c-.004-.47-.011-1.451-.017-1.913Z" fill="#fff"/><path fill-rule="evenodd" clip-rule="evenodd" d="M33.512 28.516a.12.12 0 0 0-.061-.105.125.125 0 0 0-.123-.002L18.65 36.627a.27.27 0 0 0-.14.237l-.007 2.175c0 .05.028.095.07.121a.138.138 0 0 0 .14 0l14.67-8.344a.29.29 0 0 0 .148-.255l-.019-2.045Z" fill="#83C11F"/></svg>