<svg width="37" height="50" fill="none" xmlns="http://www.w3.org/2000/svg"><path fill-rule="evenodd" clip-rule="evenodd" d="M1.246 48.223a1.104 1.104 0 0 1-.495-.922V17.892c0-.61.323-1.172.849-1.477L27.713 1.287a1.469 1.469 0 0 1 1.326-.079c.574.248 1.375.596 1.88.813a.786.786 0 0 1 .474.72v29.865c0 .516-.278.99-.728 1.248L3.766 49.157c-.36.205-.804.19-1.151-.037-.414-.272-.97-.637-1.369-.897Z" fill="#E5F1FC"/><path fill-rule="evenodd" clip-rule="evenodd" d="m1.026 48.559 1.368.897c.472.311 1.079.33 1.571.051l26.9-15.303a1.84 1.84 0 0 0 .93-1.598V2.74c0-.474-.281-.9-.716-1.09l-1.88-.81a1.872 1.872 0 0 0-1.689.097L1.4 16.064a2.113 2.113 0 0 0-1.054 1.828v29.41c0 .507.257.981.68 1.257Zm.444-.671a.699.699 0 0 1-.317-.586v-29.41c0-.465.247-.897.65-1.13L27.914 1.635c.293-.17.653-.19.964-.058l1.88.813c.138.06.229.2.229.35v29.866c0 .372-.2.713-.523.897L3.567 48.806a.7.7 0 0 1-.732-.024l-1.365-.894Z" fill="#1B374C"/><path fill-rule="evenodd" clip-rule="evenodd" d="M31.14 2.22 4.25 17.635a1.76 1.76 0 0 0-.885 1.523l-.103 30.107a.152.152 0 0 0 .302 0l.103-30.107c0-.52.281-1 .734-1.26L31.288 2.483a.15.15 0 0 0 .058-.205.15.15 0 0 0-.206-.058Z" fill="#1B374C"/><path fill-rule="evenodd" clip-rule="evenodd" d="m29.535 5.367-18.808 10.88.016 2.278L29.535 7.83V5.367Z" fill="#fff"/><path d="M8.76 19.479c.614-.354 1.112-1.138 1.112-1.752 0-.614-.498-.825-1.112-.471-.613.354-1.111 1.138-1.111 1.752 0 .614.498.825 1.111.471Z" fill="#83C11F" fill-opacity=".16"/><path d="M6.166 20.918c.614-.353 1.111-1.137 1.111-1.751 0-.614-.497-.825-1.111-.472-.614.354-1.112 1.138-1.112 1.752 0 .614.498.825 1.112.471Z" fill="#FF0002" fill-opacity=".13"/><path fill-rule="evenodd" clip-rule="evenodd" d="M29.535 9.953 5.117 23.625 5.053 46.48l24.482-13.968V9.953Z" fill="#FEFFFF"/><path fill-rule="evenodd" clip-rule="evenodd" d="M29.686 9.953a.15.15 0 0 0-.072-.13.158.158 0 0 0-.152-.003L5.042 23.492a.157.157 0 0 0-.076.133l-.064 22.853c0 .054.03.105.076.133a.15.15 0 0 0 .15 0l24.483-13.965a.15.15 0 0 0 .075-.133V9.953ZM5.268 23.713l-.06 22.505 24.176-13.792V10.21L5.268 23.712Z" fill="#1B374C"/><path fill-rule="evenodd" clip-rule="evenodd" d="M27.63 13.235 7.28 24.667l-.033 1.536L27.63 14.732v-1.497ZM27.63 15.61 7.28 27.042l-.033 1.536L27.63 17.107V15.61ZM27.63 27.744 7.28 39.175l-.033 1.535 20.384-11.47v-1.497ZM27.63 30.116 7.28 41.547l-.033 1.535 20.384-11.47v-1.497Z" fill="#E5F1FC"/><path fill-rule="evenodd" clip-rule="evenodd" d="M27.63 18.368 7.28 29.816l-.053 6.88L27.63 25.426v-7.057Z" fill="#0482DF" fill-opacity=".2"/><path fill-rule="evenodd" clip-rule="evenodd" d="m27.632 18.368 8.78.332v8.128L12.414 41.38l-5.188-4.638.052-6.879 20.354-11.496Z" fill="#63AEED" fill-opacity=".15"/><path fill-rule="evenodd" clip-rule="evenodd" d="M36.753 18.971a.266.266 0 0 0-.133-.233.267.267 0 0 0-.269-.005l-23.753 13.03a.515.515 0 0 0-.266.446c-.012 1.417-.055 7.418-.067 8.916 0 .071.037.137.097.173.06.037.136.038.2.003l23.795-13.168a.77.77 0 0 0 .396-.672v-8.49Z" fill="#0482DF"/><path fill-rule="evenodd" clip-rule="evenodd" d="M35.687 25.14a.271.271 0 0 0-.401-.24l-5.47 2.966a.511.511 0 0 0-.268.447l-.012 2.074a.199.199 0 0 0 .295.176l5.457-2.986a.767.767 0 0 0 .4-.674V25.14Z" fill="#83C11F"/><path fill-rule="evenodd" clip-rule="evenodd" d="M20.291 29.771a.271.271 0 0 0-.401-.239l-5.47 2.965a.511.511 0 0 0-.268.448l-.012 2.074c0 .07.037.136.098.172.06.036.135.037.197.004l5.457-2.986a.767.767 0 0 0 .4-.674V29.77Z" fill="#BCDEF7"/><path fill-rule="evenodd" clip-rule="evenodd" d="M28.629 29.119a.272.272 0 0 0-.4-.24l-13.787 7.437a.509.509 0 0 0-.269.444l-.028 2.086a.195.195 0 0 0 .096.173.197.197 0 0 0 .197.005l13.789-7.467a.768.768 0 0 0 .402-.676V29.12Z" fill="#fff"/><path fill-rule="evenodd" clip-rule="evenodd" d="M35.687 21.363a.272.272 0 0 0-.4-.24l-13.788 7.438a.508.508 0 0 0-.268.444l-.029 2.086a.195.195 0 0 0 .097.172.197.197 0 0 0 .197.006l13.788-7.467a.767.767 0 0 0 .403-.676v-1.763Z" fill="#BCDEF7"/></svg>