<svg width="38" height="51" fill="none" xmlns="http://www.w3.org/2000/svg"><g clip-path="url(#a)"><path fill-rule="evenodd" clip-rule="evenodd" d="M1.246 49.223a1.104 1.104 0 0 1-.495-.922V18.892c0-.61.323-1.172.849-1.477L27.713 2.287a1.468 1.468 0 0 1 1.326-.079c.574.248 1.375.596 1.88.813a.786.786 0 0 1 .474.72v29.865c0 .516-.278.99-.728 1.248L3.766 50.157c-.36.205-.804.19-1.151-.037-.414-.272-.97-.637-1.369-.897Z" fill="#E5F1FC"/><path fill-rule="evenodd" clip-rule="evenodd" d="m1.026 49.559 1.368.897c.472.311 1.079.33 1.571.051l26.9-15.303a1.84 1.84 0 0 0 .93-1.598V3.74c0-.474-.281-.9-.716-1.09l-1.88-.81a1.872 1.872 0 0 0-1.689.097L1.4 17.064a2.113 2.113 0 0 0-1.054 1.828v29.41c0 .507.257.981.68 1.257Zm.444-.671a.699.699 0 0 1-.317-.586v-29.41c0-.465.247-.897.65-1.13L27.914 2.635c.293-.17.653-.19.964-.058l1.88.813c.138.06.229.2.229.35v29.866c0 .372-.2.713-.523.897L3.567 49.806a.7.7 0 0 1-.732-.024l-1.365-.894Z" fill="#1B374C"/><path fill-rule="evenodd" clip-rule="evenodd" d="M31.14 3.22 4.25 18.635a1.76 1.76 0 0 0-.885 1.523l-.103 30.107a.151.151 0 0 0 .302 0l.103-30.107c0-.52.281-1 .734-1.26L31.288 3.483a.15.15 0 0 0 .058-.205.15.15 0 0 0-.206-.058Z" fill="#1B374C"/><path fill-rule="evenodd" clip-rule="evenodd" d="m29.535 6.367-18.808 10.88.016 2.278L29.535 8.83V6.367Z" fill="#fff"/><path d="M8.76 20.479c.614-.354 1.112-1.138 1.112-1.752 0-.614-.498-.825-1.112-.471-.613.354-1.111 1.138-1.111 1.752 0 .614.498.825 1.111.471Z" fill="#83C11F" fill-opacity=".16"/><path d="M6.166 21.918c.614-.353 1.111-1.137 1.111-1.751 0-.614-.497-.825-1.111-.472-.614.354-1.112 1.138-1.112 1.752 0 .614.498.825 1.112.471Z" fill="#FF0002" fill-opacity=".13"/><path fill-rule="evenodd" clip-rule="evenodd" d="M29.535 10.953 5.117 24.625 5.053 47.48l24.482-13.968v-22.56Z" fill="#FEFFFF"/><path fill-rule="evenodd" clip-rule="evenodd" d="M29.686 10.953a.15.15 0 0 0-.072-.13.158.158 0 0 0-.152-.003L5.042 24.492a.157.157 0 0 0-.076.133l-.064 22.853c0 .054.03.105.076.133a.15.15 0 0 0 .15 0l24.483-13.965a.15.15 0 0 0 .075-.133v-22.56ZM5.268 24.713l-.06 22.505 24.176-13.792V11.21L5.268 24.712Z" fill="#1B374C"/><path fill-rule="evenodd" clip-rule="evenodd" d="m27.967 19.018 8.599-1.502.574 13.5-8.188 5.574H20.34V23.278l7.628-4.26Z" fill="#63AEED" fill-opacity=".15"/><path fill-rule="evenodd" clip-rule="evenodd" d="M37.14 17.694a.31.31 0 0 0-.462-.27l-7.744 4.322a.59.59 0 0 0-.302.515v14.024c0 .1.053.193.14.245.087.05.194.052.282.002l7.745-4.322a.673.673 0 0 0 .342-.587V17.694Z" fill="#0482DF"/><path fill-rule="evenodd" clip-rule="evenodd" d="M36.392 19.812a.167.167 0 0 0-.08-.143.166.166 0 0 0-.164-.001L30.21 22.98a.59.59 0 0 0-.303.515v4.843c0 .051.027.097.07.122a.14.14 0 0 0 .142.002l6.065-3.385a.406.406 0 0 0 .207-.353v-4.913Z" fill="#BCDEF7"/><path fill-rule="evenodd" clip-rule="evenodd" d="M36.392 26.342a.085.085 0 0 0-.043-.075.087.087 0 0 0-.088-.002c-.836.467-5.427 3.03-6.234 3.478a.238.238 0 0 0-.12.207v1.376c0 .04.022.075.055.095a.107.107 0 0 0 .11.002c.92-.512 5.381-3.003 6.194-3.456a.248.248 0 0 0 .126-.217v-1.408Z" fill="#fff"/><path fill-rule="evenodd" clip-rule="evenodd" d="M36.392 28.875a.085.085 0 0 0-.043-.075.087.087 0 0 0-.088-.002c-.836.467-5.427 3.03-6.234 3.478a.237.237 0 0 0-.12.206v1.377c0 .04.022.075.055.095a.107.107 0 0 0 .11.002l6.194-3.456a.249.249 0 0 0 .126-.217v-1.408Z" fill="#83C11F"/><path fill-rule="evenodd" clip-rule="evenodd" d="m27.966 19.019-7.626 4.257v13.312l7.627-4.258V19.02Z" fill="#BCDEF7"/></g><defs><clipPath id="a"><path fill="#fff" d="M0 .746h37.255v50H0z"/></clipPath></defs></svg>