<svg width="300" height="40" viewBox="0 0 300 40" fill="none" xmlns="http://www.w3.org/2000/svg">
<path d="M0.0425415 20.1613C0.0425415 17.0014 0.74649 14.1791 2.15439 11.6942C3.59289 9.17866 5.5364 7.23064 7.98492 5.85015C10.4641 4.43899 13.2339 3.7334 16.2946 3.7334C19.8755 3.7334 23.0127 4.65373 25.7061 6.49438C28.3994 8.33506 30.2817 10.8813 31.3529 14.1331H23.9615C23.2269 12.5992 22.1863 11.4488 20.8396 10.6818C19.5236 9.91493 17.9932 9.53147 16.2486 9.53147C14.3817 9.53147 12.7136 9.9763 11.2445 10.8659C9.80603 11.7249 8.67354 12.952 7.84719 14.5473C7.05142 16.1424 6.65353 18.0138 6.65353 20.1613C6.65353 22.278 7.05142 24.1493 7.84719 25.7752C8.67354 27.3705 9.80603 28.6129 11.2445 29.5025C12.7136 30.3615 14.3817 30.791 16.2486 30.791C17.9932 30.791 19.5236 30.4076 20.8396 29.6406C22.1863 28.843 23.2269 27.6773 23.9615 26.1434H31.3529C30.2817 29.4258 28.3994 31.9874 25.7061 33.8281C23.0433 35.6381 19.9061 36.5431 16.2946 36.5431C13.2339 36.5431 10.4641 35.8529 7.98492 34.4724C5.5364 33.0612 3.59289 31.1131 2.15439 28.6283C0.74649 26.1434 0.0425415 23.3211 0.0425415 20.1613Z" fill="white"/>
<path d="M43.2701 14.7315C44.0964 13.3817 45.1677 12.3234 46.4837 11.5564C47.8304 10.7895 49.3607 10.406 51.0747 10.406V17.1704H49.3761C47.356 17.1704 45.8257 17.6459 44.785 18.5969C43.7751 19.5479 43.2701 21.2045 43.2701 23.5667V36.2672H36.8427V10.7741H43.2701V14.7315Z" fill="white"/>
<path d="M79.0473 22.9686C79.0473 23.8889 78.986 24.7173 78.8634 25.4535H60.2703C60.4233 27.2942 61.0661 28.736 62.1985 29.779C63.3309 30.822 64.7236 31.3436 66.3763 31.3436C68.7635 31.3436 70.4622 30.3159 71.4722 28.2605H78.4048C77.6699 30.7147 76.2621 32.7394 74.1809 34.3347C72.0997 35.8992 69.544 36.6815 66.514 36.6815C64.0655 36.6815 61.8618 36.1446 59.903 35.0709C57.9748 33.9665 56.4598 32.4173 55.3579 30.4233C54.2867 28.4292 53.7511 26.1284 53.7511 23.5208C53.7511 20.8826 54.2867 18.5663 55.3579 16.5723C56.4292 14.5783 57.9289 13.0444 59.8571 11.9707C61.7853 10.8969 64.0043 10.3601 66.514 10.3601C68.9319 10.3601 71.0897 10.8816 72.9873 11.9246C74.9155 12.9677 76.3999 14.4556 77.4405 16.3883C78.5119 18.2903 79.0473 20.4837 79.0473 22.9686ZM72.3905 21.1279C72.3598 19.4714 71.763 18.1522 70.5999 17.1705C69.4369 16.1582 68.0137 15.652 66.3303 15.652C64.7388 15.652 63.3921 16.1428 62.2903 17.1245C61.2191 18.0756 60.561 19.41 60.3162 21.1279H72.3905Z" fill="white"/>
<path d="M82.0861 23.4288C82.0861 20.8518 82.5913 18.5663 83.6009 16.5723C84.6415 14.5783 86.0344 13.0444 87.7788 11.9707C89.5543 10.8969 91.5284 10.3601 93.7012 10.3601C95.5985 10.3601 97.2514 10.7436 98.659 11.5105C100.098 12.2775 101.245 13.2438 102.103 14.4096V10.7743H108.575V36.2673H102.103V32.54C101.276 33.7365 100.129 34.7334 98.659 35.5311C97.2211 36.2981 95.5527 36.6815 93.6554 36.6815C91.5129 36.6815 89.5543 36.1293 87.7788 35.0249C86.0344 33.9205 84.6415 32.3713 83.6009 30.3772C82.5913 28.3525 82.0861 26.0364 82.0861 23.4288ZM102.103 23.5208C102.103 21.9562 101.796 20.6218 101.184 19.5174C100.573 18.3823 99.7462 17.5233 98.7056 16.9404C97.665 16.3269 96.5475 16.0201 95.3541 16.0201C94.1606 16.0201 93.0587 16.3116 92.0483 16.8945C91.038 17.4774 90.2123 18.3363 89.569 19.4714C88.9568 20.5758 88.651 21.8949 88.651 23.4288C88.651 24.9627 88.9568 26.3124 89.569 27.4782C90.2123 28.6132 91.038 29.4876 92.0483 30.1012C93.0889 30.7147 94.1909 31.0215 95.3541 31.0215C96.5475 31.0215 97.665 30.73 98.7056 30.1471C99.7462 29.5336 100.573 28.6746 101.184 27.5702C101.796 26.4352 102.103 25.0854 102.103 23.5208Z" fill="white"/>
<path d="M122.336 16.0663V28.3987C122.336 29.2577 122.536 29.8866 122.934 30.2854C123.362 30.6535 124.066 30.8376 125.045 30.8376H128.03V36.2675H123.989C118.572 36.2675 115.864 33.6292 115.864 28.3527V16.0663H112.833V10.7745H115.864V4.47021H122.336V10.7745H128.03V16.0663H122.336Z" fill="white"/>
<path d="M135.911 7.73712C134.779 7.73712 133.83 7.38433 133.065 6.67874C132.331 5.94248 131.964 5.03749 131.964 3.96377C131.964 2.89006 132.331 2.00041 133.065 1.29482C133.83 0.558561 134.779 0.19043 135.911 0.19043C137.044 0.19043 137.978 0.558561 138.712 1.29482C139.477 2.00041 139.86 2.89006 139.86 3.96377C139.86 5.03749 139.477 5.94248 138.712 6.67874C137.978 7.38433 137.044 7.73712 135.911 7.73712ZM139.08 10.7742V36.2673H132.652V10.7742H139.08Z" fill="white"/>
<path d="M156.035 30.3309L162.462 10.7739H169.302L159.891 36.267H152.087L142.721 10.7739H149.608L156.035 30.3309Z" fill="white"/>
<path d="M202.295 22.9686C202.295 23.8889 202.234 24.7173 202.112 25.4535H183.518C183.671 27.2942 184.314 28.736 185.446 29.779C186.578 30.822 187.971 31.3436 189.624 31.3436C192.011 31.3436 193.71 30.3159 194.72 28.2605H201.652C200.918 30.7147 199.51 32.7394 197.428 34.3347C195.347 35.8992 192.792 36.6815 189.762 36.6815C187.313 36.6815 185.11 36.1446 183.151 35.0709C181.223 33.9665 179.708 32.4173 178.606 30.4233C177.534 28.4292 176.999 26.1284 176.999 23.5208C176.999 20.8826 177.534 18.5663 178.606 16.5723C179.677 14.5783 181.177 13.0444 183.105 11.9707C185.033 10.8969 187.252 10.3601 189.762 10.3601C192.18 10.3601 194.338 10.8816 196.235 11.9246C198.163 12.9677 199.648 14.4556 200.688 16.3883C201.759 18.2903 202.295 20.4837 202.295 22.9686ZM195.638 21.1279C195.608 19.4714 195.01 18.1522 193.848 17.1705C192.685 16.1582 191.262 15.652 189.578 15.652C187.987 15.652 186.64 16.1428 185.538 17.1245C184.467 18.0756 183.809 19.41 183.564 21.1279H195.638Z" fill="white"/>
<path d="M168.759 35.3916C169.524 36.0972 170.473 36.45 171.606 36.45C172.738 36.45 173.671 36.0972 174.406 35.3916C175.171 34.6554 175.554 33.7504 175.554 32.6767C175.554 31.603 175.171 30.7133 174.406 30.0077C173.671 29.2715 172.738 28.9033 171.606 28.9033C170.473 28.9033 169.524 29.2715 168.759 30.0077C168.024 30.7133 167.657 31.603 167.657 32.6767C167.657 33.7504 168.024 34.6554 168.759 35.3916Z" fill="#D1B3EE"/>
<path d="M241.924 4.14795V36.2674H235.496V15.376L226.912 36.2674H222.045L213.414 15.376V36.2674H206.987V4.14795H214.286L224.478 28.0304L234.67 4.14795H241.924Z" fill="#D1B3EE"/>
<path d="M246.626 23.4288C246.626 20.8518 247.131 18.5663 248.141 16.5723C249.182 14.5783 250.574 13.0444 252.318 11.9707C254.094 10.8969 256.068 10.3601 258.241 10.3601C260.139 10.3601 261.791 10.7436 263.199 11.5105C264.638 12.2775 265.786 13.2438 266.642 14.4096V10.7743H273.116V36.2673H266.642V32.54C265.816 33.7365 264.668 34.7334 263.199 35.5311C261.761 36.298 260.093 36.6815 258.195 36.6815C256.053 36.6815 254.094 36.1293 252.318 35.0249C250.574 33.9205 249.182 32.3713 248.141 30.3772C247.131 28.3525 246.626 26.0363 246.626 23.4288ZM266.642 23.5208C266.642 21.9562 266.337 20.6218 265.725 19.5174C265.112 18.3823 264.286 17.5233 263.245 16.9404C262.205 16.3269 261.087 16.0201 259.894 16.0201C258.7 16.0201 257.598 16.3116 256.588 16.8944C255.578 17.4773 254.752 18.3363 254.109 19.4713C253.497 20.5757 253.191 21.8949 253.191 23.4288C253.191 24.9627 253.497 26.3124 254.109 27.4782C254.752 28.6132 255.578 29.4876 256.588 30.1011C257.629 30.7147 258.73 31.0215 259.894 31.0215C261.087 31.0215 262.205 30.73 263.245 30.1471C264.286 29.5336 265.112 28.6746 265.725 27.5702C266.337 26.4352 266.642 25.0853 266.642 23.5208Z" fill="#D1B3EE"/>
<path d="M285.82 10.7739V36.267H279.393V10.7739H285.82Z" fill="#D1B3EE"/>
<path d="M298.598 2.21484V36.267H292.17V2.21484H298.598Z" fill="#D1B3EE"/>
<path d="M279.727 6.61331C280.492 7.3189 281.441 7.67169 282.573 7.67169C283.705 7.67169 284.639 7.3189 285.373 6.61331C286.139 5.87705 286.521 4.97206 286.521 3.89834C286.521 2.82463 286.139 1.93498 285.373 1.2294C284.639 0.49313 283.705 0.125 282.573 0.125C281.441 0.125 280.492 0.49313 279.727 1.2294C278.992 1.93498 278.625 2.82463 278.625 3.89834C278.625 4.97206 278.992 5.87705 279.727 6.61331Z" fill="white"/>
</svg>
