<svg width="186" height="88" fill="none" xmlns="http://www.w3.org/2000/svg"><path d="M136.981 23.814c0 .284-.141.45-.447.497-.658.095-4.138.095-4.749-.024-.306-.07-.47-.284-.47-.639 0-.852.094-3.646.094-4.498 0-.662-.071-2.84-.071-3.504 0-1.444-.611-2.154-1.857-2.154-.753 0-2.304.876-2.304 1.728v8.523c0 .355-.165.544-.495.592-.682.094-4.02.071-4.632-.024-.329-.047-.493-.237-.493-.52l.023-7.434c0-2.628-.212-4.688-.611-6.18-.048-.212-.071-.52.211-.59.658-.072 1.528-.19 2.633-.356 1.669-.332 2.587-.497 2.798-.497.306 0 .236 2.13.541 2.13.118 0 .447-.355 1.693-1.088 1.246-.734 2.328-1.09 3.245-1.09 2.54 0 4.82 1.255 4.82 3.977 0 3.03 0 4.901.024 8.12 0 1.374.023 2.392.023 3.078l.024-.047Zm10.44-12.31c0 .094-.071.236-.235.425-1.27-.331-3.198.071-3.198 1.634 0 1.373 3.08 2.58 3.08 5.706 0 1.041-.446 2.509-1.222 3.148-1.552 1.326-3.809 2.438-5.808 2.438-.494 0-2.492-3.361-2.492-3.811 0-.095.07-.142.164-.166a73.326 73.326 0 0 1 2.21-.403c.918-.308 1.388-.78 1.388-1.467 0-.474-.259-.995-.799-1.61-.965-1.066-1.459-1.634-1.505-1.705-2.705-4.048 1.904-7.907 6.16-7.907.4 0 2.234 3.386 2.234 3.693l.023.024Zm12.203 8.143c0 .498-.235 2.344-.235 2.841 0 .616-.07.639-.611.947-1.34.734-2.845 1.113-4.491 1.113-3.033 0-4.538-1.16-4.538-3.504 0-1.16.164-5.09.164-6.274 0-1.254-1.81-.212-1.81-1.112 0-.284.071-1.279.071-1.539 0-.38-.071-1.658-.071-2.012 0-.213.329-.332 1.011-.356.376 0 .588-.118.611-.307.071-.403.094-1.042.071-1.894-.047-1.35-.071-1.87-.071-1.942 0-1.23.118-1.822.353-1.822.447 0 2.069.378 2.446.426.54.07 1.34.189 2.421.307.259.024.4.119.4.26 0 .71-.212 3.126-.212 3.836 0 .521.142.781.447.781.611 0 2.704-.095 3.339-.095.235 0 .353.072.353.237 0 .474-.165 1.705-.165 2.178l.024 2.202c0 .213-.141.332-.447.332a150.26 150.26 0 0 0-3.269-.048c-.164 0-.235.237-.235.687l.024 2.249c0 1.657.211 2.51 1.952 2.51.987 0 2.468-.805 2.468-.024v.023Zm9.711-4.924c0-2.084-2.562-3.433-3.973-1.634-.4.521-.588 1.113-.588 1.823 0 .284.141.426.447.426.776 0 1.975-.118 3.621-.355.352-.048.517-.142.517-.26h-.024Zm5.502.97c0 1.066-.352 1.68-1.034 1.823-.117.024-1.199.142-3.245.355-1.246.142-3.08.308-5.526.498.448 2.154 3.998 2.557 6.208 1.255.4-.261.8-.498 1.199-.759.47.238 1.881 2.96 1.881 3.457 0 .071-.07.19-.234.356-1.27 1.372-3.246 2.06-5.95 2.06-4.938 0-8.37-3.15-8.37-8.145 0-4.782 3.009-8.357 7.853-8.357 1.999 0 3.715.734 5.126 2.225 1.41 1.468 2.116 3.22 2.116 5.255l-.024-.023Zm10.628-1.254c0 .804-.892.615-1.551.568-.964-.071-2.116-.071-2.634.379-.306.26-.47.829-.47 1.657 0 .758.047 3.362.047 4.12 0 .496.118 2.224.118 2.722 0 .26-.165.402-.517.426-1.012.094-3.645.094-4.703-.024-.353-.047-.517-.213-.517-.52l.023-7.576c0-2.486-.235-4.522-.682-6.108-.047-.214-.07-.498.212-.545.588-.07 1.411-.19 2.54-.355 1.645-.332 2.515-.497 2.562-.497.471 0 .283 1.988.635 1.988.141 0 .282-.284 1.294-.828 1.01-.545 1.975-.829 2.891-.829.588 0 .87.118.87.379 0 .308-.024.734-.094 1.302-.165 1.539-.071 2.439-.071 3.74h.047Zm-90.126 9.256c0 .355-.164.568-.47.616-.635.094-4.068.094-4.702-.024-.306-.07-.47-.331-.47-.781 0-.828.093-3.528.093-4.332 0-1.847-.023-3.15-.07-3.93-.07-1.255-.659-1.87-1.764-1.87-.987 0-2.163.994-2.28 2.011-.047.45-.07 1.729-.07 3.884 0 .828.093 3.669.093 4.521 0 .355-.141.521-.447.521h-4.75c-.281 0-.446-.213-.446-.64 0-.851.094-3.621.094-4.473 0-.663-.07-2.888-.07-3.552 0-3.882-4.092-1.894-4.092-.497l.023 8.57c0 .544-.047.568-.587.616-1.129.094-3.034.094-4.468-.024-.517-.048-.517-.048-.517-.591l.024-7.576c0-1.729-.118-3.67-.377-5.824-.047-.26-.094-.545.188-.64.518-.213 2.352-.307 2.704-.379.353-.07 1.882-.544 2.47-.544.47 0 .234 2.226.446 2.202.635-.166 2.116-2.32 5.197-2.32 1.833 0 3.715.876 4.208 2.675 1.106-1.515 3.269-2.675 5.126-2.675 2.633 0 4.844 1.302 4.844 4.072 0 .947-.094 4.095-.094 5.042 0 1.113.094 4.877.094 5.99l.07-.047Z" fill="#0D82DF"/><path d="M11.139 16.45c0-1.586-1.034-3.148-2.75-3.148-2.564 0-3.646 3.385-2.047 5.35 1.6 1.965 4.797.876 4.797-2.202Zm17.165.142c0-3.053-3.316-4.237-4.844-2.201-1.27 1.704-.776 5.398 2.07 5.398 1.833 0 2.774-1.066 2.774-3.197Zm5.808.024c0 4.427-2.822 7.907-7.337 7.907-1.74 0-3.903-1.207-3.832-1.207-.142 0-.212.166-.212.474 0 .947.165 3.906.165 4.853 0 .331-.165.497-.518.497-.8 0-4.02.07-4.585-.071-.305-.071-.47-.26-.47-.592l.024-12.169c0-2.462-.189-4.521-.541-6.202-.047-.213-.07-.498.164-.592.847-.332 3.833-.781 4.774-.781.964 0 .61 1.633.916 1.633-.117 0 .353-.284 1.34-.852 1.012-.569 1.905-.852 2.728-.852 4.632 0 7.407 3.338 7.407 7.93l-.023.024ZM46.103 19.6c0 .687-.235 2.178-.235 2.84 0 .57-.047.64-.611.948-1.34.734-2.845 1.113-4.491 1.113-3.034 0-4.538-1.16-4.538-3.504 0-1.207.164-5.066.164-6.273 0-1.279-1.81-.19-1.81-1.113 0-.284.07-1.278.07-1.539 0-.379-.07-1.657-.07-2.012 0-.213.329-.332 1.01-.355.377 0 .589-.119.612-.308.07-.403.094-1.042.07-1.894-.046-1.35-.07-2.012-.07-1.941 0-1.231.118-1.823.353-1.823.564 0 1.857.355 2.445.426.54.07 1.34.19 2.422.308.259.023.4.118.4.26 0 .805-.212 3.03-.212 3.835 0 .521.141.781.447.781.611 0 2.704-.094 3.339-.094.235 0 .352.07.352.237 0 .473-.164 1.704-.164 2.178l.023 2.201c0 .214-.14.332-.446.332-1.129-.024-2.14-.048-3.268-.048-.165 0-.236.237-.236.687l.024 2.249c0 1.657.235 2.51 1.951 2.51 1.105 0 2.47-.83 2.47-.024v.023Zm6.09-2.628c0 1.302.094 5.564.094 6.866 0 .213-.14.355-.4.403-.728.118-4.09.142-4.82 0-.235-.048-.376-.119-.423-.213-.07-.143.07-6.487.07-7.055 0-2.983-.117-5.374-.352-7.15-.094-.781.094-.734 1.74-.544 2.116.213 2.469-.072 4.091-.072.447 0 .376.285.353.616-.235 2.06-.353 4.427-.353 7.15Zm.4-11.742c0 1.823-1.035 2.746-3.08 2.746-3.245 0-3.974-3.267-2.14-4.759 1.928-1.562 5.22-.497 5.22 2.013Zm16.835 18.537c0 .284-.14.45-.446.497-.659.095-4.139.095-4.75-.023-.306-.072-.47-.284-.47-.64 0-.852.094-3.645.094-4.497 0-.664-.07-2.842-.07-3.505 0-1.444-.612-2.154-1.858-2.154-.8 0-2.305.9-2.305 1.728v8.523c0 .355-.164.545-.493.592-.776.095-3.904.095-4.633-.024-.329-.047-.493-.237-.493-.52l.023-7.434c0-2.628-.211-4.688-.611-6.179-.047-.237-.047-.52.211-.592.659-.07 1.529-.19 2.634-.355 1.67-.331 2.586-.497 2.798-.497.306 0 .235 2.13.541 2.13-.117 0 .447-.354 1.693-1.088 1.246-.734 2.328-1.09 3.245-1.09 2.54 0 4.82 1.255 4.82 3.978 0 3.03 0 4.9.023 8.12 0 1.373.024 2.39.024 3.078l.023-.048ZM16.266 16.45c0 4.806-3.15 8.097-7.947 8.097-4.61 0-7.901-3.243-7.901-7.907 0-4.83 2.986-8.239 7.9-8.239 4.75 0 7.948 3.267 7.948 8.05Z" fill="#84C51E"/><path d="M108.625 24.17c9.993 0 18.105.875 18.105 1.965 0 1.089-8.112 1.965-18.105 1.965s-18.105-.876-18.105-1.965c0-1.09 8.112-1.966 18.105-1.966Z" fill="#000" fill-opacity=".145"/><path d="M119.512 8.545c.235-.142.282-1.018.306-1.279.07-.592.799-.852 1.27-.544.823.591 1.246 1.728 1.363 2.699.118.994.024 2.32-.681 3.1-.753.853-2.658 1.114-3.786.995-.306-.023-.588-.095-.87-.142l-.541-4.877.588.119c.588.118 1.787.237 2.328-.071h.023Z" fill="#996"/><path d="M121.345 7.597c-.141-.19-.305-.38-.493-.497-.189-.143-.541-.024-.565.213l-.023.165c.353-.118.752-.023 1.081.119Zm.659 3.338a4.895 4.895 0 0 0-.188-2.391c-.188-.237-.377-.426-.73-.568-.446-.19-.681-.119-.892.07-.024.19-.072.332-.118.474 1.223.403 1.74 1.586 1.928 2.438v-.023Zm-3.574-1.752a6.41 6.41 0 0 1-1.317-.142l.423 3.93c.565.118 1.223.118 1.81.047.424-1.515 0-3.29-.94-3.859l.024.024Zm1.316-.26c-.164.094-.4.165-.681.212.846.9 1.105 2.534.798 3.812.706-.142 1.294-.402 1.599-.734.071-.07.118-.166.189-.237 0-1.35-.541-2.793-1.834-3.077-.024.024-.024.024-.048.024h-.023Z" fill="#C0C0A0"/><path d="M119.511 11.479a4.903 4.903 0 0 1-1.623.118 3.379 3.379 0 0 1-.517-.094l-.282-2.439a6.41 6.41 0 0 0 1.317.142c.611.38 1.012 1.279 1.082 2.273h.023Zm1.717-3.433.07.426c.047.284.047.616.024.947a2.76 2.76 0 0 0-1.246-.899c.046-.142.094-.284.118-.473.187-.166.446-.261.892-.071l.142.07Zm-.353-.923c.071.118.117.237.165.355a1.52 1.52 0 0 0-.8-.023l.024-.166c.023-.237.375-.356.564-.213l.047.023v.024Zm-1.129 1.8c-.164.094-.4.165-.681.212.517.545.798 1.35.893 2.202.329-.119.634-.284.823-.52.188-.19-.306-1.776-.988-1.918-.023.023-.023.024-.047.024Z" fill="#FBFAC4"/><path d="M97.457 8.545c-.235-.142-.282-1.018-.306-1.279-.07-.592-.8-.852-1.27-.544-.823.591-1.246 1.728-1.363 2.699-.118.994-.024 2.32.682 3.1.752.853 2.656 1.114 3.785.995.306-.023.588-.095.87-.142l.541-4.877-.588.119c-.588.118-1.787.237-2.328-.071h-.023Z" fill="#996"/><path d="M95.622 7.597c.141-.19.306-.38.493-.497.189-.143.542-.024.566.213l.022.165c-.352-.118-.752-.023-1.08.119Zm-.659 3.338a4.892 4.892 0 0 1 .189-2.391c.188-.237.376-.426.729-.568.446-.19.682-.119.892.07.024.19.072.332.118.474-1.222.403-1.74 1.586-1.928 2.438v-.023Zm3.575-1.752c.423 0 .87-.048 1.316-.142l-.423 3.93c-.565.118-1.223.118-1.81.047-.424-1.515 0-3.29.94-3.859l-.023.024Zm-1.317-.26c.164.094.4.165.681.212-.846.9-1.104 2.534-.798 3.812-.706-.142-1.293-.402-1.6-.734-.07-.07-.117-.166-.188-.237 0-1.35.541-2.793 1.834-3.077.024.024.024.024.048.024h.023Z" fill="#C0C0A0"/><path d="M97.456 11.479a4.902 4.902 0 0 0 1.623.118c.188-.023.352-.047.517-.094l.282-2.439a6.403 6.403 0 0 1-1.317.142c-.611.38-1.01 1.279-1.082 2.273h-.023ZM95.74 8.046l-.07.426a4.18 4.18 0 0 0-.024.947c.306-.378.705-.71 1.245-.899-.046-.142-.094-.284-.118-.473-.187-.166-.446-.261-.892-.071l-.141.07Zm.352-.923c-.07.118-.117.237-.164.355a1.52 1.52 0 0 1 .8-.023l-.024-.166c-.023-.237-.376-.356-.564-.213l-.048.023v.024Zm1.129 1.8c.164.094.4.165.681.212-.517.545-.798 1.35-.892 2.202-.33-.119-.635-.284-.824-.52-.188-.19.306-1.776.988-1.918.024.023.023.024.047.024Z" fill="#FBFAC4"/><path d="M100.066 7.598c-.823-.072-1.623.094-2.422.213l.705-.687c.682-.663 1.6-1.255 2.47-1.681 1.293-.663 2.774-1.16 4.255-1.302-1.035-.45-2.21-.663-3.315-.923 4.256-.9 9.711-1.231 13.614 2.107 2.234 1.917 3.457 5.469 3.457 8.688 0 12.146-20.55 12.146-20.55 0 0-1.633.399-3.196 1.151-4.616-.281.07-.54.165-.823.284l-1.246.52.893-1.017a7.268 7.268 0 0 1 1.858-1.54l-.047-.046Z" fill="#8ED41E"/><path d="M109.283 3.856c1.999.237 3.951.9 5.572 2.297 1.976 1.68 3.034 4.806 3.034 7.623 0 5.16-4.233 7.836-8.606 7.978V3.856Z" fill="#70A91B"/><path d="M101.713 6.485c1.552-1.042 4.091-1.374 7.148-1.208-.541-.639-1.034-1.042-1.763-1.397 1.387-.047 2.492.26 5.243 1.208-2.374-1.397-5.29-2.036-8.018-1.728a9.78 9.78 0 0 1 2.798 1.325c-2.798-.307-6.02 1.042-7.313 2.155.847-.095 1.599.07 2.399.426-1.129.402-1.858.757-2.563 1.444 1.222-.616 2.186-1.136 3.738-1.468-.611-.213-.94-.592-1.669-.757Z" fill="#A1E141"/><path d="M108.531 3.62c2.822 0 5.102 2.225 5.102 4.995 0 2.746-2.28 4.995-5.102 4.995-2.822 0-5.102-2.226-5.102-4.995-.001-2.747 2.28-4.996 5.102-4.996Z" fill="#70A91B"/><path d="M100.442 13.278c.164-.307 15.636-.426 15.942 0 .54.71.235 1.397 0 1.99h-15.942c-.141-.64-.376-1.327 0-1.99Z" fill="#70A91B"/><path d="M100.654 13.728c.165-.403 15.236-.569 15.542 0 .517.97.211 1.917 0 2.722h-15.542c-.141-.876-.353-1.8 0-2.722Z" fill="#4B7113"/><path d="M113.187 3.407c-.211-4.048-5.62-4.474-7.03-1.302 2.492-1.373 5.031-.876 7.03 1.302Z" fill="#70A91B"/><path d="M110.176.046c-1.575-.237-3.291.45-3.997 2.035.941-.52 1.905-.757 2.822-.757.188-.355.635-1.042 1.199-1.278h-.024Z" fill="#85C51F"/><path d="M108.531 3.098c2.539 0 4.585 2.06 4.585 4.617s-2.046 4.616-4.585 4.616-4.584-2.06-4.584-4.616c0-2.557 2.045-4.617 4.584-4.617Z" fill="#D3E8EF"/><path d="M105.638 4.282c1.529-1.278 3.668-1.278 4.75.048 1.081 1.302.705 3.409-.823 4.71-1.529 1.28-3.668 1.28-4.75-.047-1.081-1.302-.705-3.409.823-4.71Z" fill="#fff"/><path d="M108.648 6.152c1.787 0 3.222 1.35 3.222 3.03 0 1.681-1.435 3.031-3.222 3.031-1.786 0-3.221-1.35-3.221-3.03 0-1.681 1.435-3.03 3.221-3.03Z" fill="#0D82DF"/><path d="M108.648 6.152c.87 0 1.67.332 2.234.853a4.296 4.296 0 0 1-1.317 2.036c-1.27 1.065-2.962 1.23-4.114.52-.024-.118-.024-.236-.024-.378 0-1.681 1.435-3.03 3.221-3.03Z" fill="#0399ED"/><path d="M108.649 7.242c1.128 0 2.069.876 2.069 1.941 0 1.066-.917 1.941-2.069 1.941-1.129 0-2.069-.875-2.069-1.94 0-1.066.916-1.942 2.069-1.942Z" fill="#232323"/><path d="M108.649 7.242c.728 0 1.363.355 1.74.876-.212.331-.494.639-.823.9-.847.71-1.882 1.018-2.799.946a1.848 1.848 0 0 1-.187-.805c0-1.065.916-1.94 2.069-1.94v.023Z" fill="#323232"/><path d="M106.838 6.319c.846 0 1.528.639 1.528 1.444 0 .805-.682 1.444-1.528 1.444s-1.528-.64-1.528-1.444c0-.805.682-1.444 1.528-1.444Z" fill="#fff"/><path d="M97.832 14.864c7.101-1.065 14.226-.97 21.327 0 .517 3.74.235 7.293 0 10.867-7.101.284-14.226.332-21.327 0-.423-3.622-.47-7.245 0-10.867Z" fill="#9CAEB3"/><path d="M99.878 24.997c5.761.213 11.498.19 17.259 0-2.069-1.184-4.139-2.32-6.466-2.959-.753.356-1.552.64-2.352.876-.117.024-.117.024-.235 0a19.628 19.628 0 0 1-1.952-.757c-2.257.663-4.303 1.633-6.278 2.864l.024-.024Zm-1.364-8.901c-.305 2.865-.259 5.753.047 8.617a28.5 28.5 0 0 1 6.607-3.077c-2.68-1.42-4.561-3.457-6.654-5.54Zm19.375-.568c-6.278-.758-12.579-.83-18.857 0 2.586 2.911 5.432 5.303 9.217 6.557 4.021-1.16 6.795-3.693 9.64-6.557Zm.541 9.185c.188-2.864.376-5.729.071-8.593-2.116 2.107-4.374 4.119-7.007 5.515 2.445.734 4.726 1.824 6.96 3.078h-.024Z" fill="#D3E8EF"/><path d="M99.878 24.999c2.774.095 5.549.142 8.347.142v-2.225c-.023 0-.047 0-.117-.024a19.291 19.291 0 0 1-1.952-.758c-2.257.663-4.303 1.633-6.278 2.865Zm-1.364-8.902c-.305 2.865-.259 5.753.047 8.617a28.496 28.496 0 0 1 6.607-3.077c-2.68-1.42-4.561-3.457-6.654-5.54Zm9.711-1.16c-3.08 0-6.137.19-9.193.592 2.563 2.912 5.432 5.28 9.193 6.558v-7.15Z" fill="#fff"/><path d="M104.228 16.64c-.023.095-.07.19-.117.285a.844.844 0 0 1-.258.378c-.283.213-.635.143-.941.024-.682-.284-1.152-.97-1.435-1.634-.329-.758-.352-1.302-.164-2.13 4.749-.26 9.617-.308 14.225-.024v.024h.071c.071.805 0 1.136-.188 1.8-.212.757-.659 1.68-1.411 2.035-.282.142-.611.213-.87.024a1.15 1.15 0 0 1-.282-.38c-.165-.26-.211-.638-.258-.922-.094.189-.212.307-.4.354a6.822 6.822 0 0 1-.964.142c-.306.024-.635.048-.964.048-.494 0-1.035-.048-1.505-.189-.07.284-.188.544-.47.638a4.762 4.762 0 0 1-1.011.167c-.353.023-.706.047-1.035.047-.541 0-1.152-.047-1.646-.26a.638.638 0 0 1-.376-.403l-.001-.023Z" fill="#996"/><path d="M112.199 13.397c.189 1.066.141 2.439-.164 2.51-.471.118-2.281.308-3.174-.023-.236-.45-.236-1.587-.212-2.51 1.223 0 2.445 0 3.55.023Zm-7.595.213a21.795 21.795 0 0 0-.493 1.753c-.094.426-.165.852-.236 1.16-.094.425-.305.497-.705.33-1.035-.449-1.575-2.2-1.529-3.266.706-.048 1.764-.095 2.963-.142 1.153-.024 2.446-.048 3.739-.048.117 1.303.117 2.865-.164 3.196-.495.167-2.422.403-3.363-.023-.424-.19-.259-1.775-.236-2.936l.024-.024Zm7.784-.213c.14.569.305 1.16.469 1.918.094.474.142.924.212 1.231.094.473.282.545.658.355.918-.474 1.435-2.226 1.411-3.385a59.439 59.439 0 0 0-2.75-.119Z" fill="#C0C0A0"/><path d="M108.648 14.037c1.105 0 2.211 0 3.221.023.165.592.165 1.658-.541 1.918-.752.071-1.834.095-2.468-.142-.165-.332-.212-1.066-.212-1.8Zm-4.068.07c1.011-.023 2.164-.047 3.316-.047.117.853.329 2.557-.729 2.652-.776.071-1.74.071-2.352-.19-.352-.165-.305-1.349-.258-2.39l.023-.024Zm-2.892.143a32.532 32.532 0 0 1 1.928-.095c.094 0 .282 2.344.282 2.344-.094.426-.306.497-.705.332-.823-.356-1.341-1.54-1.482-2.558l-.023-.023Zm11.381 2.296c.094.473.282.545.658.355.753-.379 1.223-1.61 1.364-2.675a25.07 25.07 0 0 0-1.623-.095c-.376.285-.446 2.25-.399 2.415Z" fill="#FBFAC4"/><path d="M106.626 14.084c.047.924 0 1.847-.117 1.918-.235.142-1.105.331-1.529-.024-.165-.118-.141-1.018-.117-1.87.564-.024 1.152-.024 1.787-.048l-.024.024Zm3.95-.024c.024.687-.024 1.326-.117 1.373-.212.119-1.035.261-1.458-.023-.141-.095-.141-.734-.118-1.373h1.694l-.001.023Zm-7.43.119c-.024.26-.024.568-.024.876v.947c0 .355-.094.426-.282.26-.376-.284-.705-1.184-.846-2.012.329-.024.729-.047 1.152-.071Zm11.662.024a13.21 13.21 0 0 0-1.058-.048c0 .26.024.544.024.853v1.018c0 .378.07.45.258.283.33-.308.635-1.207.776-2.106Z" fill="#fff"/><path fill-rule="evenodd" clip-rule="evenodd" d="M99.244 25.186c-.259 1.183-1.435 1.965-2.61 1.917-1.623-.071-4.139-1.87-4.091-3.645.023-.995.752-1.895 1.505-2.462.728-.57 1.951-1.16 2.892-.9.94.26 1.598 1.562 1.904 2.414.282.734.565 1.895.376 2.676h.024Zm18.529 0c-.189-.78.093-1.942.375-2.676.306-.852.965-2.154 1.905-2.414.94-.26 2.164.33 2.892.9.752.567 1.482 1.467 1.505 2.462.047 1.775-2.469 3.574-4.091 3.645-1.176.047-2.351-.734-2.61-1.917h.024Z" fill="#85C51F"/><path fill-rule="evenodd" clip-rule="evenodd" d="M98.843 25.069c.023-.142.047-.284.047-.45-.305-1.302-1.034-2.793-1.857-3.03-1.27-.379-3.833 1.326-3.692 3.078.705 1.089 2.21 1.989 3.292 2.035.988.048 1.999-.615 2.21-1.61v-.023Zm19.281 0c-.023-.142-.048-.284-.048-.45.307-1.302 1.035-2.793 1.858-3.03 1.27-.379 3.833 1.326 3.692 3.078-.706 1.089-2.211 1.989-3.292 2.035-.988.048-1.999-.615-2.211-1.61l.001-.023Z" fill="#70A91B"/><path fill-rule="evenodd" clip-rule="evenodd" d="M98.397 25.4c.164-.402-.07-1.112-.54-1.042-.495.095-1.67.947-1.623 1.421.023.379.682.71 1.199.52.376-.14.823-.567.964-.899Zm20.198 0c-.165-.402.07-1.112.541-1.042.494.095 1.669.947 1.622 1.421-.024.379-.682.71-1.199.52-.376-.14-.823-.567-.964-.899Zm-20.927-1.657c.329-.663-.21-1.823-1.034-1.729-.87.119-2.751 1.421-2.751 2.44 0 .639.87 1.089 1.786.828.682-.19 1.74-.994 2-1.54Zm21.656 0c-.33-.663.211-1.823 1.035-1.729.87.119 2.751 1.421 2.751 2.44 0 .639-.871 1.089-1.788.828-.682-.19-1.739-.994-1.998-1.54Z" fill="#5D8D17"/><path fill-rule="evenodd" clip-rule="evenodd" d="M93.577 22.63c.141.309-.165.734-.517.711-.376-.284-.729-.947-.588-1.113.14-.189.776 0 1.105.403Zm29.815 0c-.142.309.164.734.517.711.376-.284.728-.947.588-1.113-.141-.189-.776 0-1.105.403Zm-28.616-1.183c.093.473-.54.876-.847.663-.4-.403-.54-1.113-.353-1.279.189-.165.87.095 1.2.616Zm27.416 0c-.093.473.541.876.847.663.4-.403.541-1.113.353-1.279-.188-.165-.87.095-1.2.616Zm-25.817-.781c.023.426-.8.804-1.129.497-.282-.545-.21-1.208.024-1.35.258-.142.894.119 1.105.853Zm24.219 0c-.024.426.799.804 1.128.497.283-.545.212-1.208-.023-1.35-.259-.142-.894.119-1.105.853ZM98.588 16.247c-.109-.05-.168-.163-.191-.364-.048-.38.07-.97.517-1.066.447-.095 1.082.355 1.129.733l.023.024c.039.318-.352.503-.756.61.33.14.63.444.662.716.043.366-.42.576-.858.682.338.156.63.363.481.643h.024c-.188.355-.988.64-1.41.497-.448-.142-.354-.686-.165-1.04.078-.17.166-.258.284-.29a1.005 1.005 0 0 1-.026-.137c-.037-.317.028-.78.286-1.008Zm19.083-.059c-.409-.107-.81-.292-.77-.614l.023-.024c.047-.378.682-.828 1.129-.733.447.095.565.687.517 1.066-.022.192-.077.303-.176.356.265.227.331.696.294 1.016a.873.873 0 0 1-.027.144c.106.036.189.124.262.282.188.355.282.9-.164 1.041-.423.143-1.223-.142-1.411-.497h.023c-.149-.282.148-.49.49-.647-.433-.107-.885-.316-.842-.678.031-.27.327-.57.652-.712Zm-21.297-1.49c.07.309.658.237 1.105.143.447-.118.612-.213.517-.52-.07-.309-.352-.735-.798-.617-.447.119-.894.687-.824 1.019v-.025Zm24.242 0c-.071.309-.658.237-1.105.143-.446-.118-.611-.213-.518-.52.072-.309.353-.735.8-.617.447.119.893.687.823 1.019v-.025Z" fill="#2C440C"/><path fill-rule="evenodd" clip-rule="evenodd" d="m96.002 18.54.114.326-.305-.237a1.461 1.461 0 0 1-.353-.474c.023.19.047.309.094.474-.446-.734-.847-1.54-.588-2.604.235-.97 1.2-1.42 1.881-1.61.424-.118.893-.19 1.317-.142.258.024.705.094.893.331.188.238.282.734.33 1.065.07.521.047 1.066-.024 1.587-.07.473-.212.923-.447 1.302-.188.284-.4.497-.681.616-.33.142-.66.165-1.012.094-.449-.09-.855-.353-1.219-.728l-.026-.077-.025.024.051.053Zm24.964 0c-.363.375-.77.638-1.218.728-.353.07-.682.047-1.012-.094-.282-.119-.494-.332-.681-.616-.236-.38-.376-.83-.447-1.302a5.934 5.934 0 0 1-.023-1.587c.046-.33.14-.827.329-1.065.188-.237.635-.307.893-.331.423-.047.893.024 1.316.142.682.19 1.646.64 1.882 1.61.258 1.065-.142 1.87-.588 2.604.047-.165.071-.284.094-.474-.094.19-.211.355-.353.474l-.306.236.114-.325.052-.053-.024-.024-.028.077Z" fill="#85C51F"/><path fill-rule="evenodd" clip-rule="evenodd" d="M98.82 14.936c.282.332.423 1.73.094 2.747a1.379 1.379 0 0 1-.329.047c-.518.048-1.012-.189-1.34-.473.023.142.07.237.117.308-.282-.118-.517-.473-.682-.876.023.331.07.474.117.663-.352-.118-.634-.52-.846-.946-.188-.38-.165-.924.164-1.16.87-.64 2.352-.688 2.68-.285l.025-.025Zm19.327 0c-.282.332-.423 1.73-.093 2.747.093.024.211.047.328.047.518.048 1.012-.189 1.341-.473a.767.767 0 0 1-.118.308c.283-.118.518-.473.682-.876-.023.331-.071.474-.117.663.353-.118.634-.52.847-.946.187-.38.164-.924-.165-1.16-.87-.64-2.352-.688-2.68-.285l-.025-.025Z" fill="#A1E141"/><path d="M17.41 65.622c-2.017 0-4.032.91-5.04 3.185-.672-2.389-2.576-3.185-4.816-3.185-1.68 0-3.36.682-4.255 2.389v-.91c0-.683-.56-1.252-1.232-1.252-.672 0-1.232.569-1.232 1.252v12.4c0 .683.56 1.252 1.232 1.252.672 0 1.232-.57 1.232-1.252v-7.395c0-2.389 1.568-4.21 3.92-4.21 2.575 0 3.919 1.821 3.919 4.21v7.395c0 .683.56 1.252 1.232 1.252.672 0 1.232-.57 1.232-1.252v-7.395c0-2.389 1.567-4.21 3.92-4.21 2.575 0 3.807 1.707 3.807 4.21v7.395c0 .683.56 1.252 1.231 1.252.672 0 1.232-.57 1.232-1.252v-7.395c-.336-3.981-2.463-6.484-6.383-6.484ZM59.18 65.622c-2.016 0-4.032.91-5.04 3.185-.672-2.389-2.575-3.185-4.815-3.185-1.68 0-3.36.682-4.256 2.389v-.91c0-.683-.56-1.252-1.231-1.252-.672 0-1.232.569-1.232 1.252v12.4c0 .683.56 1.252 1.232 1.252.672 0 1.231-.57 1.231-1.252v-7.395c0-2.389 1.568-4.21 3.92-4.21 2.576 0 3.92 1.821 3.92 4.21v7.395c0 .683.56 1.252 1.231 1.252.672 0 1.232-.57 1.232-1.252v-7.395c0-2.389 1.568-4.21 3.92-4.21 2.575 0 3.807 1.707 3.807 4.21v7.395c0 .683.56 1.252 1.232 1.252.672 0 1.232-.57 1.232-1.252v-7.395c-.336-3.981-2.352-6.484-6.383-6.484ZM39.246 74.154c.56 0 1.12-.455 1.12-1.137 0-5.12-3.136-7.51-7.279-7.51-4.367 0-7.503 3.186-7.503 7.623 0 4.665 3.136 7.623 7.615 7.623 2.128 0 4.48-.797 5.935-2.276.224-.227.336-.455.336-.796 0-.569-.448-1.138-1.12-1.138-.336 0-.56.114-.784.342-1.007 1.024-2.8 1.592-4.367 1.592-2.8 0-4.927-1.706-5.263-4.323h11.31Zm-11.198-2.048c.448-2.844 2.575-4.323 5.039-4.323 2.8 0 4.703 1.48 4.815 4.323h-9.854ZM98.487 74.154c.56 0 1.12-.455 1.12-1.137 0-5.12-3.136-7.51-7.28-7.51-4.367 0-7.503 3.186-7.503 7.623 0 4.665 3.136 7.623 7.615 7.623 2.128 0 4.48-.797 5.936-2.276.224-.227.335-.455.335-.796 0-.569-.447-1.138-1.12-1.138-.335 0-.56.114-.783.342-1.008 1.024-2.8 1.592-4.368 1.592-2.8 0-4.927-1.706-5.263-4.323h11.31Zm-11.199-2.048c.448-2.844 2.576-4.323 5.04-4.323 2.799 0 4.703 1.48 4.815 4.323h-9.855ZM156.383 74.154c.56 0 1.12-.455 1.12-1.137 0-5.12-3.136-7.51-7.279-7.51-4.368 0-7.503 3.186-7.503 7.623 0 4.665 3.135 7.623 7.615 7.623 2.127 0 4.479-.797 5.935-2.276.224-.227.336-.455.336-.796 0-.569-.448-1.138-1.12-1.138-.336 0-.56.114-.784.342-1.008 1.024-2.799 1.592-4.367 1.592-2.8 0-4.928-1.706-5.264-4.323h11.311Zm-11.199-2.048c.448-2.844 2.576-4.323 5.04-4.323 2.799 0 4.703 1.48 4.815 4.323h-9.855ZM75.978 65.622c-2.016 0-4.368.91-5.376 2.844v-7.509c0-.682-.56-1.251-1.232-1.251-.672 0-1.232.569-1.232 1.251v18.544c0 .683.56 1.252 1.232 1.252.672 0 1.232-.57 1.232-1.252v-1.593c1.12 1.935 3.248 2.731 5.376 2.731 4.143 0 7.39-2.73 7.39-7.509 0-4.892-3.247-7.508-7.39-7.508Zm-.112 12.855c-2.8 0-5.04-2.161-5.04-5.347 0-3.185 2.24-5.347 5.04-5.347s5.039 1.82 5.039 5.347c0 3.413-2.24 5.347-5.04 5.347ZM122.003 65.622c-2.127 0-4.255.91-5.375 2.73V66.76c0-.682-.56-1.251-1.232-1.251-.672 0-1.232.569-1.232 1.251v19.455c0 .682.56 1.251 1.232 1.251.672 0 1.232-.569 1.232-1.251v-8.42c1.008 1.935 3.36 2.845 5.375 2.845 4.144 0 7.28-2.617 7.28-7.622 0-4.665-3.136-7.395-7.28-7.395Zm-.112 12.855c-2.799 0-5.039-2.161-5.039-5.347 0-3.185 2.24-5.347 5.039-5.347 2.8 0 5.04 1.934 5.04 5.234 0 3.64-2.24 5.46-5.04 5.46ZM111.589 66.19c-.784-.34-1.568-.568-2.576-.568-1.792 0-3.583.682-4.479 2.275v-1.024a1.13 1.13 0 0 0-1.12-1.138c-.672 0-1.12.57-1.12 1.138v12.742c0 .683.56 1.252 1.232 1.252.672 0 1.232-.57 1.232-1.252v-7.167c0-2.73 1.568-4.323 4.255-4.323a4.58 4.58 0 0 1 1.792.34c.112.115.336.115.448.115.672 0 1.12-.57 1.12-1.138-.112-.683-.448-1.024-.784-1.252ZM141.377 66.19c-.784-.34-1.568-.568-2.576-.568-1.791 0-3.583.682-4.479 2.275v-1.024a1.13 1.13 0 0 0-1.12-1.138c-.672 0-1.12.57-1.12 1.138v12.742c0 .683.56 1.252 1.232 1.252.672 0 1.232-.57 1.232-1.252v-7.167c0-2.73 1.568-4.323 4.255-4.323a4.58 4.58 0 0 1 1.792.34c.112.115.336.115.448.115.672 0 1.12-.57 1.12-1.138-.112-.683-.448-1.024-.784-1.252ZM165.454 71.879c-1.792-.228-3.584-.569-3.584-2.048 0-1.593 1.568-2.39 3.584-2.39.896 0 2.464.228 3.247.57l.672.341c.112.114.336.114.448.114.56 0 1.12-.455 1.12-1.138 0-.455-.336-.91-.672-1.024-.224-.114-.448-.227-.672-.227-1.344-.455-2.799-.683-4.031-.683-2.8 0-5.935 1.252-5.935 4.437 0 3.072 3.023 3.754 5.823 4.21 2.24.227 4.031.682 4.031 2.389-.112 1.934-2.351 2.275-3.807 2.275a8.552 8.552 0 0 1-3.808-.91c-.112-.114-.336-.114-.56-.114-.672 0-1.119.569-1.119 1.138 0 .455.224.91.671 1.024 1.456.682 2.912 1.024 4.704 1.024 3.247 0 6.047-1.366 6.159-4.437 0-3.641-3.584-4.096-6.271-4.551ZM179.564 71.879c-1.792-.228-3.584-.569-3.584-2.048 0-1.593 1.568-2.39 3.584-2.39.896 0 2.464.228 3.248.57l.672.341c.111.114.335.114.447.114.56 0 1.12-.455 1.12-1.138 0-.455-.336-.91-.672-1.024-.224-.114-.448-.227-.672-.227-1.343-.455-2.799-.683-4.031-.683-2.8 0-5.935 1.252-5.935 4.437 0 3.072 3.023 3.754 5.823 4.21 2.24.227 4.031.682 4.031 2.389-.112 1.934-2.351 2.275-3.807 2.275a8.552 8.552 0 0 1-3.808-.91c-.112-.114-.335-.114-.559-.114-.672 0-1.12.569-1.12 1.138 0 .455.224.91.672 1.024 1.455.682 2.911 1.024 4.703 1.024 3.248 0 6.047-1.366 6.159-4.437 0-3.641-3.583-4.096-6.271-4.551Z" fill="#06429E"/><path d="M94.948 53.74a2.25 2.25 0 0 1-3.049-.01l-.124-.115c-5.95-5.42-9.838-8.969-9.69-13.396.068-1.94 1.054-3.8 2.652-4.896 2.992-2.054 6.686-1.095 8.681 1.255 1.995-2.35 5.69-3.32 8.681-1.255 1.598 1.096 2.584 2.956 2.652 4.896.159 4.427-3.74 7.976-9.69 13.42l-.113.102Z" fill="#DC3232"/></svg>