<svg width="38" height="50" fill="none" xmlns="http://www.w3.org/2000/svg"><path fill-rule="evenodd" clip-rule="evenodd" d="M1.833 48.355a1.104 1.104 0 0 1-.496-.922v-29.41c0-.61.324-1.172.85-1.477L28.298 1.42a1.469 1.469 0 0 1 1.327-.079l1.88.813a.786.786 0 0 1 .474.719v29.865c0 .517-.279.991-.729 1.248L4.353 49.288c-.36.206-.804.19-1.151-.036-.414-.272-.97-.638-1.37-.898Z" fill="#E5F1FC"/><path fill-rule="evenodd" clip-rule="evenodd" d="m1.612 48.69 1.369.897c.471.312 1.079.33 1.571.052l26.899-15.303a1.84 1.84 0 0 0 .93-1.598V2.872c0-.474-.28-.9-.716-1.09l-1.879-.81a1.872 1.872 0 0 0-1.689.096L1.987 16.196a2.113 2.113 0 0 0-1.054 1.828v29.41c0 .507.256.981.68 1.256Zm.445-.67a.698.698 0 0 1-.318-.587v-29.41c0-.465.248-.896.65-1.13L28.502 1.767c.293-.169.653-.19.964-.057l1.879.813c.139.06.23.199.23.35v29.866c0 .371-.2.713-.523.897A251811.21 251811.21 0 0 1 4.153 48.938a.7.7 0 0 1-.73-.024l-1.366-.895Z" fill="#1B374C"/><path fill-rule="evenodd" clip-rule="evenodd" d="M31.727 2.352 4.837 17.767a1.76 1.76 0 0 0-.885 1.523l-.103 30.107c0 .081.067.15.151.15a.152.152 0 0 0 .151-.15l.103-30.107c0-.52.281-1 .734-1.26C9.544 15.416 31.875 2.615 31.875 2.615a.15.15 0 0 0 .057-.206.15.15 0 0 0-.205-.057Z" fill="#1B374C"/><path fill-rule="evenodd" clip-rule="evenodd" d="m30.122 5.499-18.808 10.88.015 2.278L30.122 7.96V5.5Z" fill="#fff"/><path d="M9.347 19.61c.614-.353 1.112-1.137 1.112-1.751 0-.614-.498-.825-1.112-.472-.614.354-1.111 1.138-1.111 1.752 0 .614.497.825 1.111.471Z" fill="#83C11F" fill-opacity=".16"/><path d="M6.753 21.05c.613-.353 1.111-1.137 1.111-1.751 0-.614-.498-.825-1.111-.472-.614.354-1.112 1.138-1.112 1.752 0 .614.498.825 1.112.471Z" fill="#FF0002" fill-opacity=".13"/><path fill-rule="evenodd" clip-rule="evenodd" d="M30.122 10.085 5.704 23.756 5.64 46.612l24.482-13.967v-22.56Z" fill="#FEFFFF"/><path fill-rule="evenodd" clip-rule="evenodd" d="M30.273 10.085a.15.15 0 0 0-.073-.13.158.158 0 0 0-.15-.003L5.627 23.623a.157.157 0 0 0-.076.133L5.49 46.609c0 .054.03.106.076.133a.15.15 0 0 0 .15 0l24.482-13.964a.151.151 0 0 0 .076-.133v-22.56ZM5.855 23.843l-.06 22.505L29.97 32.557V10.341L5.855 23.844Z" fill="#1B374C"/><path fill-rule="evenodd" clip-rule="evenodd" d="m25.684 17.388 11.469-.74-1.596 11.076L21.928 40.19l-9.601-2.873.033-12.47 13.324-7.46Z" fill="#63AEED" fill-opacity=".15"/><path fill-rule="evenodd" clip-rule="evenodd" d="m25.682 17.389-13.321 7.458-.035 12.47 13.356-7.62V17.388Z" fill="#BCDEF7"/><path fill-rule="evenodd" clip-rule="evenodd" d="M37.727 17.172a.498.498 0 0 0-.74-.433c-2.86 1.603-13.14 7.357-15.034 8.417-.185.106-.3.3-.302.514-.004 1.98-.032 11.888-.038 14.213a.28.28 0 0 0 .141.244.281.281 0 0 0 .282.002l15.073-8.598a1.23 1.23 0 0 0 .618-1.066V17.172Z" fill="#0482DF"/><path fill-rule="evenodd" clip-rule="evenodd" d="M36.233 19.436a.373.373 0 0 0-.186-.323.373.373 0 0 0-.373-.005l-11.337 6.348a.697.697 0 0 0-.356.605c-.003 1.112-.01 4.195-.014 5.31 0 .086.044.164.118.207a.232.232 0 0 0 .237.001c1.83-1.042 10.118-5.771 11.675-6.66a.497.497 0 0 0 .252-.433l-.016-5.05Z" fill="#BCDEF7"/><path fill-rule="evenodd" clip-rule="evenodd" d="M36.235 25.918a.15.15 0 0 0-.074-.128.146.146 0 0 0-.147-.001c-1.534.86-10.628 5.95-11.888 6.655a.285.285 0 0 0-.145.246l-.003 1.693a.142.142 0 0 0 .21.124l11.836-6.733a.442.442 0 0 0 .223-.386l-.012-1.47Z" fill="#fff"/><path fill-rule="evenodd" clip-rule="evenodd" d="M36.235 28.91a.144.144 0 0 0-.071-.12.142.142 0 0 0-.141-.002c-1.505.844-10.663 5.97-11.903 6.664a.272.272 0 0 0-.138.237l-.006 1.703c0 .05.028.096.07.12a.14.14 0 0 0 .14.002l11.934-6.788a.257.257 0 0 0 .127-.224c-.001-.34-.009-1.178-.012-1.591Z" fill="#83C11F"/></svg>