<svg width="302" height="40" viewBox="0 0 302 40" fill="none" xmlns="http://www.w3.org/2000/svg">
<path d="M0.727234 20.7785C0.727234 17.5868 1.43587 14.7359 2.85315 12.2259C4.30125 9.68493 6.25771 7.71723 8.72255 6.32279C11.2182 4.89736 14.0065 4.18465 17.0876 4.18465C20.6924 4.18465 23.8505 5.11428 26.5618 6.97353C29.2731 8.83278 31.168 11.4047 32.2463 14.6894H24.8056C24.0662 13.14 23.0186 11.978 21.6629 11.2033C20.3381 10.4286 18.7976 10.0413 17.0414 10.0413C15.1619 10.0413 13.4828 10.4906 12.0039 11.3892C10.5558 12.2569 9.41578 13.4964 8.5839 15.1078C7.78283 16.7191 7.38229 18.6093 7.38229 20.7785C7.38229 22.9166 7.78283 24.8068 8.5839 26.4492C9.41578 28.0605 10.5558 29.3155 12.0039 30.2142C13.4828 31.0818 15.1619 31.5156 17.0414 31.5156C18.7976 31.5156 20.3381 31.1283 21.6629 30.3536C23.0186 29.5479 24.0662 28.3704 24.8056 26.821H32.2463C31.168 30.1367 29.2731 32.7242 26.5618 34.5834C23.8813 36.4117 20.7232 37.3258 17.0876 37.3258C14.0065 37.3258 11.2182 36.6286 8.72255 35.2341C6.25771 33.8087 4.30125 31.841 2.85315 29.331C1.43587 26.821 0.727234 23.9702 0.727234 20.7785Z" fill="#313944"/>
<path d="M44.2429 15.2937C45.0748 13.9302 46.1532 12.8612 47.478 12.0865C48.8337 11.3118 50.3742 10.9244 52.0996 10.9244V17.7572H50.3896C48.3561 17.7572 46.8156 18.2375 45.768 19.1981C44.7513 20.1587 44.2429 21.832 44.2429 24.2181V37.0469H37.7727V11.2963H44.2429V15.2937Z" fill="#313944"/>
<path d="M80.2586 23.6138C80.2586 24.5435 80.197 25.3801 80.0738 26.1238H61.3564C61.5105 27.9831 62.1575 29.4395 63.2975 30.4931C64.4375 31.5466 65.8394 32.0734 67.5031 32.0734C69.9063 32.0734 71.6163 31.0353 72.633 28.9592H79.6116C78.8722 31.4382 77.4549 33.4834 75.3598 35.0947C73.2647 36.6751 70.692 37.4653 67.6418 37.4653C65.1769 37.4653 62.9586 36.923 60.9867 35.8384C59.0456 34.7229 57.5205 33.158 56.4113 31.1438C55.333 29.1296 54.7938 26.8055 54.7938 24.1716C54.7938 21.5067 55.333 19.1671 56.4113 17.1529C57.4897 15.1387 58.9994 13.5894 60.9405 12.5048C62.8815 11.4202 65.1153 10.878 67.6418 10.878C70.0758 10.878 72.2479 11.4047 74.1582 12.4583C76.0992 13.5119 77.5935 15.0148 78.6411 16.967C79.7195 18.8882 80.2586 21.1038 80.2586 23.6138ZM73.5574 21.7546C73.5266 20.0812 72.9257 18.7488 71.7549 17.7572C70.5842 16.7346 69.1515 16.2233 67.4569 16.2233C65.8547 16.2233 64.4991 16.7191 63.3899 17.7107C62.3115 18.6713 61.6491 20.0193 61.4026 21.7546H73.5574Z" fill="#313944"/>
<path d="M83.3175 24.0786C83.3175 21.4757 83.8259 19.1671 84.8427 17.1529C85.8902 15.1387 87.2921 13.5894 89.0483 12.5048C90.8353 11.4202 92.8226 10.878 95.0101 10.878C96.9204 10.878 98.5841 11.2653 100.001 12.04C101.449 12.8147 102.605 13.7908 103.468 14.9683V11.2963H109.984V37.0469H103.468V33.2819C102.636 34.4904 101.48 35.4975 100.001 36.3032C98.5533 37.0779 96.8741 37.4653 94.9639 37.4653C92.8072 37.4653 90.8353 36.9075 89.0483 35.7919C87.2921 34.6764 85.8902 33.1115 84.8427 31.0973C83.8259 29.0521 83.3175 26.7126 83.3175 24.0786ZM103.468 24.1716C103.468 22.5912 103.159 21.2433 102.543 20.1277C101.927 18.9812 101.095 18.1135 100.048 17.5248C99.0001 16.905 97.8755 16.5952 96.6739 16.5952C95.4723 16.5952 94.3631 16.8895 93.3463 17.4783C92.3296 18.0671 91.4977 18.9347 90.8507 20.0812C90.2345 21.1968 89.9264 22.5293 89.9264 24.0786C89.9264 25.628 90.2345 26.9915 90.8507 28.169C91.4977 29.3155 92.3296 30.1987 93.3463 30.8184C94.3939 31.4382 95.5031 31.7481 96.6739 31.7481C97.8755 31.7481 99.0001 31.4537 100.048 30.8649C101.095 30.2452 101.927 29.3775 102.543 28.262C103.159 27.1154 103.468 25.752 103.468 24.1716Z" fill="#313944"/>
<path d="M123.836 16.6416V29.0986C123.836 29.9663 124.037 30.6015 124.437 31.0044C124.869 31.3762 125.577 31.5621 126.563 31.5621H129.567V37.0469H125.5C120.047 37.0469 117.32 34.382 117.32 29.0521V16.6416H114.27V11.2963H117.32V4.92835H123.836V11.2963H129.567V16.6416H123.836Z" fill="#313944"/>
<path d="M137.502 8.22852C136.362 8.22852 135.407 7.87217 134.637 7.15945C133.897 6.41575 133.528 5.50162 133.528 4.41706C133.528 3.33249 133.897 2.43385 134.637 1.72114C135.407 0.977441 136.362 0.605591 137.502 0.605591C138.642 0.605591 139.582 0.977441 140.321 1.72114C141.092 2.43385 141.477 3.33249 141.477 4.41706C141.477 5.50162 141.092 6.41575 140.321 7.15945C139.582 7.87217 138.642 8.22852 137.502 8.22852ZM140.691 11.2963V37.0469H134.221V11.2963H140.691Z" fill="#313944"/>
<path d="M157.759 31.0508L164.23 11.2963H171.116L161.642 37.0469H153.785L144.357 11.2963H151.289L157.759 31.0508Z" fill="#313944"/>
<path d="M204.328 23.6138C204.328 24.5435 204.266 25.3801 204.143 26.1238H185.426C185.58 27.9831 186.227 29.4395 187.367 30.4931C188.507 31.5466 189.909 32.0734 191.572 32.0734C193.976 32.0734 195.686 31.0353 196.702 28.9592H203.681C202.941 31.4382 201.524 33.4834 199.429 35.0947C197.334 36.6751 194.761 37.4653 191.711 37.4653C189.246 37.4653 187.028 36.923 185.056 35.8384C183.115 34.7229 181.59 33.158 180.481 31.1438C179.402 29.1296 178.863 26.8055 178.863 24.1716C178.863 21.5067 179.402 19.1671 180.481 17.1529C181.559 15.1387 183.069 13.5894 185.01 12.5048C186.951 11.4202 189.185 10.878 191.711 10.878C194.145 10.878 196.317 11.4047 198.227 12.4583C200.168 13.5119 201.663 15.0148 202.71 16.967C203.789 18.8882 204.328 21.1038 204.328 23.6138ZM197.627 21.7546C197.596 20.0812 196.995 18.7488 195.824 17.7572C194.653 16.7346 193.221 16.2233 191.526 16.2233C189.924 16.2233 188.568 16.7191 187.459 17.7107C186.381 18.6713 185.718 20.0193 185.472 21.7546H197.627Z" fill="#313944"/>
<path d="M170.569 36.1629C171.339 36.8756 172.294 37.2319 173.434 37.2319C174.574 37.2319 175.514 36.8756 176.253 36.1629C177.024 35.4192 177.409 34.505 177.409 33.4205C177.409 32.3359 177.024 31.4373 176.253 30.7246C175.514 29.9809 174.574 29.609 173.434 29.609C172.294 29.609 171.339 29.9809 170.569 30.7246C169.829 31.4373 169.46 32.3359 169.46 33.4205C169.46 34.505 169.829 35.4192 170.569 36.1629Z" fill="#663399"/>
<path d="M244.221 4.60321V37.0472H237.751V15.9446L229.108 37.0472H224.21L215.521 15.9446V37.0472H209.051V4.60321H216.399L226.659 28.727L236.919 4.60321H244.221Z" fill="#663399"/>
<path d="M248.954 24.0789C248.954 21.4759 249.462 19.1674 250.479 17.1532C251.527 15.139 252.929 13.5896 254.685 12.505C256.472 11.4205 258.459 10.8782 260.647 10.8782C262.557 10.8782 264.221 11.2655 265.638 12.0402C267.086 12.8149 268.241 13.791 269.104 14.9685V11.2965H275.62V37.0472H269.104V33.2822C268.272 34.4907 267.117 35.4978 265.638 36.3034C264.19 37.0781 262.511 37.4655 260.6 37.4655C258.444 37.4655 256.472 36.9077 254.685 35.7922C252.929 34.6766 251.527 33.1117 250.479 31.0975C249.462 29.0524 248.954 26.7128 248.954 24.0789ZM269.104 24.1718C269.104 22.5915 268.796 21.2435 268.18 20.128C267.564 18.9814 266.732 18.1138 265.684 17.525C264.637 16.9053 263.512 16.5954 262.31 16.5954C261.109 16.5954 260 16.8898 258.983 17.4785C257.966 18.0673 257.134 18.9349 256.487 20.0815C255.871 21.197 255.563 22.5295 255.563 24.0789C255.563 25.6282 255.871 26.9917 256.487 28.1692C257.134 29.3158 257.966 30.1989 258.983 30.8187C260.03 31.4384 261.14 31.7483 262.31 31.7483C263.512 31.7483 264.637 31.4539 265.684 30.8651C266.732 30.2454 267.564 29.3777 268.18 28.2622C268.796 27.1156 269.104 25.7522 269.104 24.1718Z" fill="#663399"/>
<path d="M288.41 11.2965V37.0472H281.94V11.2965H288.41Z" fill="#663399"/>
<path d="M301.273 2.651V37.0472H294.803V2.651H301.273Z" fill="#663399"/>
<path d="M282.275 7.09366C283.045 7.80637 284 8.16273 285.14 8.16273C286.28 8.16273 287.22 7.80637 287.959 7.09366C288.73 6.34995 289.115 5.43582 289.115 4.35126C289.115 3.2667 288.73 2.36806 287.959 1.65534C287.22 0.911645 286.28 0.539795 285.14 0.539795C284 0.539795 283.045 0.911645 282.275 1.65534C281.535 2.36806 281.166 3.2667 281.166 4.35126C281.166 5.43582 281.535 6.34995 282.275 7.09366Z" fill="#313944"/>
</svg>
